#N canvas 48 97 880 763 10;
#X obj 101 201 inlet~;
#X obj 210 540 outlet~;
#X obj 101 336 bp~ 1 1;
#X obj 179 336 bp~ 1 1;
#X obj 246 337 bp~ 1 1;
#X obj 316 337 bp~ 1 1;
#X obj 198 157 loadbang;
#X msg 197 197 1 359 426 1748 3000 500;
#X obj 267 227 inlet;
#X obj 210 477 *~ 10;
#X obj 101 359 *~ 0.99;
#X obj 179 358 *~ 0.89;
#X obj 246 358 *~ 0.79;
#X obj 316 358 *~ 0.79;
#X obj 210 498 clip~ -1 1;
#X obj 454 252 inlet;
#X obj 578 292 inlet;
#X obj 197 264 unpack f f f f f;
#X connect 0 0 2 0;
#X connect 0 0 3 0;
#X connect 0 0 4 0;
#X connect 0 0 5 0;
#X connect 2 0 10 0;
#X connect 3 0 11 0;
#X connect 4 0 12 0;
#X connect 5 0 13 0;
#X connect 6 0 7 0;
#X connect 7 0 17 0;
#X connect 8 0 17 0;
#X connect 9 0 14 0;
#X connect 10 0 9 0;
#X connect 11 0 9 0;
#X connect 12 0 9 0;
#X connect 13 0 9 0;
#X connect 14 0 1 0;
#X connect 15 0 5 2;
#X connect 15 0 4 2;
#X connect 15 0 3 2;
#X connect 15 0 2 2;
#X connect 16 0 9 1;
#X connect 17 1 2 1;
#X connect 17 2 3 1;
#X connect 17 3 4 1;
#X connect 17 4 5 1;
