#N canvas 48 93 880 763 10;
#X obj 101 201 inlet~;
#X obj 210 540 outlet~;
#X obj 101 336 bp~ 1 1;
#X obj 179 336 bp~ 1 1;
#X obj 246 337 bp~ 1 1;
#X obj 316 337 bp~ 1 1;
#X obj 198 157 loadbang;
#X obj 197 264 unpack f f f f f f;
#X floatatom 381 320 5 0 0 0 - - -, f 5;
#X msg 197 197 1 359 426 1748 3000 500;
#X obj 539 182 inlet;
#X obj 210 477 *~ 10;
#X obj 101 359 *~ 0.99;
#X obj 179 358 *~ 0.89;
#X obj 246 358 *~ 0.79;
#X obj 316 358 *~ 0.79;
#X obj 210 498 clip~ -1 1;
#X obj 349 460 r reso_makeup;
#X obj 486 264 r resonance;
#X connect 0 0 2 0;
#X connect 0 0 3 0;
#X connect 0 0 4 0;
#X connect 0 0 5 0;
#X connect 2 0 12 0;
#X connect 3 0 13 0;
#X connect 4 0 14 0;
#X connect 5 0 15 0;
#X connect 6 0 9 0;
#X connect 7 1 2 1;
#X connect 7 2 3 1;
#X connect 7 3 4 1;
#X connect 7 4 5 1;
#X connect 7 5 5 2;
#X connect 7 5 4 2;
#X connect 7 5 3 2;
#X connect 7 5 2 2;
#X connect 7 5 8 0;
#X connect 9 0 7 0;
#X connect 10 0 7 0;
#X connect 11 0 16 0;
#X connect 12 0 11 0;
#X connect 13 0 11 0;
#X connect 14 0 11 0;
#X connect 15 0 11 0;
#X connect 16 0 1 0;
#X connect 17 0 11 1;
#X connect 18 0 5 2;
#X connect 18 0 4 2;
#X connect 18 0 3 2;
#X connect 18 0 2 2;
