#N canvas 344 213 1093 517 10;
#X obj 91 5 inlet~;
#X obj 344 225 +~;
#X obj 386 225 +~;
#X obj 783 472 outlet~;
#X obj 995 370 outlet~;
#X obj 305 288 +~;
#X obj 414 289 +~;
#X obj 347 288 -~;
#X obj 454 288 -~;
#X obj 305 327 +~;
#X obj 349 328 +~;
#X obj 393 329 -~;
#X obj 432 329 -~;
#X obj 680 172 inlet;
#X obj 680 244 / 200;
#X obj 680 196 min 100;
#X obj 680 219 max 0;
#X obj 305 354 *~ \$1;
#X obj 350 355 *~ \$1;
#X obj 392 356 *~ \$1;
#X obj 433 357 *~ \$1;
#X obj 746 174 inlet;
#X obj 746 198 min 100;
#X obj 746 221 max 0;
#X obj 837 266 / 100;
#X obj 1019 320 *~ \$2;
#X obj 820 412 *~ \$2;
#X obj 835 77 loadbang;
#X obj 304 7 inlet~;
#X msg 865 110 15;
#X obj 98 32 e_reverb-echo \$0-echo-del1 5.43216;
#X obj 91 65 e_reverb-echo \$0-echo-del2 8.45346;
#X obj 91 89 e_reverb-echo \$0-echo-del3 13.4367;
#X obj 91 113 e_reverb-echo \$0-echo-del4 21.5463;
#X obj 91 137 e_reverb-echo \$0-echo-del5 34.3876;
#X obj 91 161 e_reverb-echo \$0-echo-del6 55.5437;
#X obj 306 465 delwrite~ \$0-loop-del1 60;
#X obj 351 443 delwrite~ \$0-loop-del2 71.9345;
#X obj 393 420 delwrite~ \$0-loop-del3 86.7545;
#X obj 432 397 delwrite~ \$0-loop-del4 95.945;
#X obj 365 164 delread~ \$0-loop-del1 60;
#X obj 407 189 delread~ \$0-loop-del2 71.9345;
#X obj 453 218 delread~ \$0-loop-del3 86.7545;
#X obj 475 243 delread~ \$0-loop-del4 95.945;
#X msg 813 107 70;
#X connect 0 0 30 0;
#X connect 1 0 5 0;
#X connect 1 0 7 0;
#X connect 1 0 26 0;
#X connect 2 0 5 1;
#X connect 2 0 7 1;
#X connect 2 0 25 0;
#X connect 5 0 9 0;
#X connect 5 0 11 0;
#X connect 6 0 11 1;
#X connect 6 0 9 1;
#X connect 7 0 10 0;
#X connect 7 0 12 0;
#X connect 8 0 10 1;
#X connect 8 0 12 1;
#X connect 9 0 17 0;
#X connect 10 0 18 0;
#X connect 11 0 19 0;
#X connect 12 0 20 0;
#X connect 13 0 15 0;
#X connect 14 0 17 1;
#X connect 14 0 18 1;
#X connect 14 0 19 1;
#X connect 14 0 20 1;
#X connect 15 0 16 0;
#X connect 16 0 14 0;
#X connect 17 0 36 0;
#X connect 18 0 37 0;
#X connect 19 0 38 0;
#X connect 20 0 39 0;
#X connect 21 0 22 0;
#X connect 22 0 23 0;
#X connect 23 0 24 0;
#X connect 24 0 25 1;
#X connect 24 0 26 1;
#X connect 25 0 4 0;
#X connect 26 0 3 0;
#X connect 27 0 44 0;
#X connect 27 0 29 0;
#X connect 28 0 30 1;
#X connect 29 0 22 0;
#X connect 30 0 31 0;
#X connect 30 1 31 1;
#X connect 31 0 32 0;
#X connect 31 1 32 1;
#X connect 32 0 33 0;
#X connect 32 1 33 1;
#X connect 33 0 34 0;
#X connect 33 1 34 1;
#X connect 34 0 35 0;
#X connect 34 1 35 1;
#X connect 35 0 1 0;
#X connect 35 1 2 0;
#X connect 40 0 1 1;
#X connect 41 0 2 1;
#X connect 42 0 6 0;
#X connect 42 0 8 0;
#X connect 43 0 6 1;
#X connect 43 0 8 1;
#X connect 44 0 15 0;
