#N canvas 633 238 988 597 10;
#X obj 338 8 r impact;
#N canvas 1035 280 676 773 server 0;
#X msg 104 110 listen 3000;
#X obj 152 211 oscparse;
#X msg 206 110 listen 0;
#X obj 153 164 netreceive -b -u 3000;
#X obj 151 260 route send;
#X obj 152 238 list trim;
#X obj 36 458 send;
#X obj 37 342 unpack s f;
#X obj 36 420 f;
#X obj 37 369 t b s;
#X obj 104 56 loadbang;
#X obj 152 287 list split 1;
#X obj 167 385 list;
#X obj 231 342 t b s;
#X obj 182 445 send;
#X msg 357 176 connect 192.168.0.34 1200;
#X floatatom 386 308 5 0 0 0 - - -, f 5;
#X obj 340 407 list prepend send;
#X obj 340 429 list trim;
#X obj 317 250 netsend -u -b;
#X obj 358 363 oscformat /env;
#X connect 0 0 3 0;
#X connect 1 0 5 0;
#X connect 2 0 3 0;
#X connect 3 0 1 0;
#X connect 3 0 17 0;
#X connect 4 0 11 0;
#X connect 5 0 4 0;
#X connect 7 0 9 0;
#X connect 7 1 8 1;
#X connect 8 0 6 0;
#X connect 9 0 8 0;
#X connect 9 1 6 1;
#X connect 10 0 0 0;
#X connect 11 0 13 0;
#X connect 11 1 12 1;
#X connect 12 0 14 0;
#X connect 13 0 12 0;
#X connect 13 1 14 1;
#X connect 15 0 19 0;
#X connect 16 0 20 0;
#X connect 17 0 18 0;
#X connect 18 0 19 0;
#X connect 20 0 17 0;
#X restore 54 30 pd server;
#X obj 616 254 *~;
#X obj 618 357 dac~;
#X obj 672 236 vline~;
#X obj 616 276 +~ 0.25;
#X obj 628 322 cos~;
#X obj 672 73 tgl 15 0 empty empty empty 17 7 0 10 -262144 -1 -1 0
1;
#X obj 672 115 random 1000;
#X obj 672 137 / 1000;
#X obj 672 93 vmetro 20 100;
#X obj 798 24 hsl 128 15 1 5000 1 0 empty empty empty -2 -8 0 10 -262144
-1 -1 0 1;
#X obj 691 40 + 20;
#X obj 732 63 * 2;
#X floatatom 795 44 5 0 0 0 - - -, f 5;
#X obj 339 50 route impact;
#X msg 775 221 1 \, 0 100;
#X obj 339 29 list trim;
#X obj 341 100 unpack f f f f;
#X msg 672 201 \$1 4 \, 0 4 4;
#X obj 629 303 *~ 1;
#X obj 605 214 osc~ 190;
#X obj 90 246 noise~;
#X obj 182 50 list trim;
#X obj 181 29 r ambient;
#X obj 182 71 route ambient;
#X obj 198 154 unpack f f f;
#X obj 188 270 clip 0 1;
#X obj 190 334 sig~;
#X obj 145 391 *~;
#X obj 150 438 dac~;
#X floatatom 330 321 15 0 0 0 - - -, f 15;
#X floatatom 201 241 5 0 0 0 - - -, f 5;
#X obj 304 356 sig~;
#X obj 252 395 *~;
#X obj 315 246 clip 0 1;
#X obj 251 184 * -0.15;
#X obj 251 206 + 0.5;
#X obj 112 291 *~;
#X obj 72 374 *~ 0.3;
#X obj 107 345 lop~ 100;
#X obj 112 313 *~ 20;
#X obj 170 206 * 0.9;
#X connect 0 0 17 0;
#X connect 2 0 5 0;
#X connect 4 0 2 1;
#X connect 5 0 20 0;
#X connect 6 0 3 0;
#X connect 6 0 3 1;
#X connect 7 0 10 0;
#X connect 8 0 9 0;
#X connect 9 0 19 0;
#X connect 10 0 8 0;
#X connect 11 0 12 0;
#X connect 11 0 14 0;
#X connect 12 0 10 1;
#X connect 12 0 13 0;
#X connect 13 0 10 2;
#X connect 15 0 18 0;
#X connect 16 0 4 0;
#X connect 17 0 15 0;
#X connect 18 2 19 0;
#X connect 19 0 4 0;
#X connect 20 0 6 0;
#X connect 21 0 2 0;
#X connect 22 0 38 0;
#X connect 22 0 38 1;
#X connect 23 0 25 0;
#X connect 24 0 23 0;
#X connect 25 0 26 0;
#X connect 26 0 42 0;
#X connect 26 2 36 0;
#X connect 27 0 28 0;
#X connect 28 0 29 1;
#X connect 29 0 30 0;
#X connect 29 0 30 1;
#X connect 33 0 34 0;
#X connect 35 0 33 0;
#X connect 35 0 31 0;
#X connect 36 0 37 0;
#X connect 37 0 32 0;
#X connect 37 0 35 0;
#X connect 38 0 41 0;
#X connect 39 0 29 0;
#X connect 40 0 39 0;
#X connect 41 0 40 0;
#X connect 42 0 27 0;
