#N canvas 1 110 1905 998 10;
#X obj 755 1583 dac~;
#X obj 628 427 oscparse;
#X obj 628 398 netreceive -u -b;
#X msg 641 371 listen 0;
#X obj 55 425 s formants;
#X msg 73 92 1 270 540 2300 3000 850;
#X obj 118 173 bng 25 250 50 0 empty empty empty 17 7 0 10 -262144
-1 -1;
#X obj 862 1538 tanhtable~;
#X obj 804 1538 tanh~;
#X obj 711 1535 tanh~;
#X obj 140 232 vsl 15 128 0 10000 0 0 empty empty empty 0 -9 0 10 -262144
-1 -1 0 1;
#X obj 145 369 nbx 5 14 -1e+37 1e+37 0 0 empty empty empty 0 -8 0 10
-262144 -1 -1 0 256;
#X obj 205 231 vsl 15 128 0 10000 0 0 empty empty empty 0 -9 0 10 -262144
-1 -1 0 1;
#X obj 210 368 nbx 5 14 -1e+37 1e+37 0 0 empty empty empty 0 -8 0 10
-262144 -1 -1 0 256;
#X obj 266 230 vsl 15 128 0 10000 0 0 empty empty empty 0 -9 0 10 -262144
-1 -1 0 1;
#X obj 271 367 nbx 5 14 -1e+37 1e+37 0 0 empty empty empty 0 -8 0 10
-262144 -1 -1 0 256;
#X obj 329 230 vsl 15 128 0 10000 0 0 empty empty empty 0 -9 0 10 -262144
-1 -1 0 1;
#X obj 334 367 nbx 5 14 -1e+37 1e+37 0 0 empty empty empty 0 -8 0 10
-262144 -1 -1 0 256;
#X obj 392 230 vsl 15 128 0 1000 0 0 empty empty empty 0 -9 0 10 -262144
-1 -1 0 1;
#X obj 397 367 nbx 5 14 -1e+37 1e+37 0 0 empty empty empty 0 -8 0 10
-262144 -1 -1 0 256;
#X obj 119 397 pack a f f f f f;
#X obj 806 595 route impact;
#X obj 628 472 route send;
#X obj 628 449 list trim;
#X obj 497 104 hradio 25 1 0 5 empty empty empty 0 -8 0 10 -262144
-1 -1 0;
#X obj 497 142 s synth;
#X obj 830 692 route impact;
#X obj 806 616 list trim;
#X floatatom 561 144 5 0 0 0 - - -, f 5;
#X msg 60 63 1 554 752 1852 5211 500;
#X obj 499 10 hradio 25 1 0 7 empty empty empty 0 -8 0 10 -262144 -1
-1 3;
#X obj 499 65 s scale;
#X symbolatom 565 66 15 0 0 0 - - -, f 15;
#X text 462 234 material != 0 si collision bille / paroi;
#X text 463 189 material / masse / velocité / stéréo : infor sur
une bille;
#X obj 720 69 s note;
#X floatatom 720 47 5 0 0 0 - - -, f 5;
#X obj 804 1503 clip~ -1 1;
#X obj 710 1503 clip~ -1 1;
#X obj 45 10 loadbang;
#X obj 488 -35 loadbang;
#X msg 488 -13 3;
#X obj 719 4 loadbang;
#X obj 628 327 loadbang;
#X obj 240 835 noise~;
#X obj 241 863 *~;
#X obj 551 962 -~ 0.25;
#X obj 551 935 *~ 0.25;
#X obj 502 960 cos~;
#X obj 550 984 cos~;
#X obj 551 913 lop~ 10;
#X obj 395 1198 *~;
#X obj 450 1195 *~;
#X floatatom 641 903 5 0 0 0 - - -, f 5;
#X obj 402 621 list trim;
#X obj 402 600 route ambient;
#X obj 402 643 route ambient;
#X obj 402 680 unpack f f f;
#X obj 242 948 *~;
#X obj 364 911 clip 0 1;
#X floatatom 423 741 10 0 0 0 - - -, f 10;
#X obj 551 853 * -0.15;
#X obj 551 876 + 0.5;
#X obj 242 884 *~ 100;
#X msg 628 352 listen 3000;
#N canvas 705 156 1114 907 tincan 0;
#X obj -2 0 inlet~;
#X obj 76 253 outlet~;
#X obj -2 135 bp~ 1 1;
#X obj 76 135 bp~ 1 1;
#X obj 143 136 bp~ 1 1;
#X obj 213 136 bp~ 1 1;
#X obj 95 -44 loadbang;
#X obj 94 63 unpack f f f f f f;
#X floatatom 278 119 5 0 0 0 - - -, f 5;
#X msg 94 -4 1 359 426 1748 3000 500;
#X obj 436 -19 inlet;
#X obj 76 190 *~ 10;
#X obj -2 158 *~ 0.99;
#X obj 76 157 *~ 0.89;
#X obj 143 157 *~ 0.79;
#X obj 213 157 *~ 0.79;
#X obj 76 211 clip~ -1 1;
#X connect 0 0 2 0;
#X connect 0 0 3 0;
#X connect 0 0 4 0;
#X connect 0 0 5 0;
#X connect 2 0 12 0;
#X connect 3 0 13 0;
#X connect 4 0 14 0;
#X connect 5 0 15 0;
#X connect 6 0 9 0;
#X connect 7 1 2 1;
#X connect 7 2 3 1;
#X connect 7 3 4 1;
#X connect 7 4 5 1;
#X connect 7 5 5 2;
#X connect 7 5 4 2;
#X connect 7 5 3 2;
#X connect 7 5 2 2;
#X connect 7 5 8 0;
#X connect 9 0 7 0;
#X connect 10 0 7 0;
#X connect 11 0 16 0;
#X connect 12 0 11 0;
#X connect 13 0 11 0;
#X connect 14 0 11 0;
#X connect 15 0 11 0;
#X connect 16 0 1 0;
#X coords 0 0 1 1 240 160 0;
#X restore 396 1119 pd tincan;
#X obj 330 1087 *~;
#X obj 395 1086 *~;
#X obj 413 1044 lop~ 10;
#X obj 348 1044 lop~ 10;
#X obj 456 1087 r formants;
#X obj 348 997 r ambient-dry;
#X obj 413 1021 r ambient-wet;
#N canvas 931 383 931 679 tincan 0;
#X obj -2 0 inlet~;
#X obj 76 253 outlet~;
#X obj -2 135 bp~ 1 1;
#X obj 76 135 bp~ 1 1;
#X obj 143 136 bp~ 1 1;
#X obj 213 136 bp~ 1 1;
#X obj 95 -44 loadbang;
#X obj 94 63 unpack f f f f f f;
#X floatatom 278 119 5 0 0 0 - - -, f 5;
#X msg 94 -4 1 359 426 1748 3000 500;
#X obj 436 -19 inlet;
#X obj 76 190 *~ 10;
#X obj -2 158 *~ 0.99;
#X obj 76 157 *~ 0.89;
#X obj 143 157 *~ 0.79;
#X obj 213 157 *~ 0.79;
#X obj 76 211 clip~ -1 1;
#X connect 0 0 2 0;
#X connect 0 0 3 0;
#X connect 0 0 4 0;
#X connect 0 0 5 0;
#X connect 2 0 12 0;
#X connect 3 0 13 0;
#X connect 4 0 14 0;
#X connect 5 0 15 0;
#X connect 6 0 9 0;
#X connect 7 1 2 1;
#X connect 7 2 3 1;
#X connect 7 3 4 1;
#X connect 7 4 5 1;
#X connect 7 5 5 2;
#X connect 7 5 4 2;
#X connect 7 5 3 2;
#X connect 7 5 2 2;
#X connect 7 5 8 0;
#X connect 9 0 7 0;
#X connect 10 0 7 0;
#X connect 11 0 16 0;
#X connect 12 0 11 0;
#X connect 13 0 11 0;
#X connect 14 0 11 0;
#X connect 15 0 11 0;
#X connect 16 0 1 0;
#X coords 0 0 1 1 240 160 0;
#X restore 1264 1355 pd tincan;
#X obj 1198 1329 *~;
#X obj 1263 1328 *~;
#X obj 1281 1286 lop~ 10;
#X obj 1216 1286 lop~ 10;
#X obj 1324 1325 r formants;
#N canvas 931 383 931 679 tincan 0;
#X obj -2 0 inlet~;
#X obj 76 253 outlet~;
#X obj -2 135 bp~ 1 1;
#X obj 76 135 bp~ 1 1;
#X obj 143 136 bp~ 1 1;
#X obj 213 136 bp~ 1 1;
#X obj 95 -44 loadbang;
#X obj 94 63 unpack f f f f f f;
#X floatatom 278 119 5 0 0 0 - - -, f 5;
#X msg 94 -4 1 359 426 1748 3000 500;
#X obj 436 -19 inlet;
#X obj 76 190 *~ 10;
#X obj 76 211 clip~ -1 1;
#X obj -2 158 *~ 0.99;
#X obj 76 157 *~ 0.89;
#X obj 143 157 *~ 0.79;
#X obj 213 157 *~ 0.79;
#X connect 0 0 2 0;
#X connect 0 0 3 0;
#X connect 0 0 4 0;
#X connect 0 0 5 0;
#X connect 2 0 13 0;
#X connect 3 0 14 0;
#X connect 4 0 15 0;
#X connect 5 0 16 0;
#X connect 6 0 9 0;
#X connect 7 1 2 1;
#X connect 7 2 3 1;
#X connect 7 3 4 1;
#X connect 7 4 5 1;
#X connect 7 5 5 2;
#X connect 7 5 4 2;
#X connect 7 5 3 2;
#X connect 7 5 2 2;
#X connect 7 5 8 0;
#X connect 9 0 7 0;
#X connect 10 0 7 0;
#X connect 11 0 12 0;
#X connect 12 0 1 0;
#X connect 13 0 11 0;
#X connect 14 0 11 0;
#X connect 15 0 11 0;
#X connect 16 0 11 0;
#X coords 0 0 1 1 240 160 0;
#X restore 972 1351 pd tincan;
#X obj 906 1329 *~;
#X obj 971 1328 *~;
#X obj 989 1286 lop~ 10;
#X obj 924 1286 lop~ 10;
#X obj 1032 1321 r formants;
#X obj 1066 90 vsl 15 128 0 127 0 0 empty empty empty 0 -9 0 10 -262144
-1 -1 500 1;
#X obj 1066 226 / 127;
#X obj 1066 252 s ambient-dry;
#X obj 1169 90 vsl 15 128 0 127 0 0 empty empty empty 0 -9 0 10 -262144
-1 -1 1500 1;
#X obj 1169 226 / 127;
#X obj 1169 252 s ambient-wet;
#X obj 1272 90 vsl 15 128 0 127 0 0 empty empty empty 0 -9 0 10 -262144
-1 -1 10000 1;
#X obj 1272 226 / 127;
#X obj 1353 90 vsl 15 128 0 127 0 0 empty empty empty 0 -9 0 10 -262144
-1 -1 6000 1;
#X obj 1353 226 / 127;
#X obj 907 1177 catch~ impact-left-wall;
#X obj 711 963 catch~ impact-left-ball;
#X obj 804 992 catch~ impact-right-ball;
#X obj 924 1246 r wall-dry-lvl;
#X obj 989 1265 r wall-wet-lvl;
#X obj 1216 1234 r wall-dry-lvl;
#X obj 1281 1254 r wall-wet-lvl;
#X obj 711 1160 *~;
#X obj 803 1159 *~;
#X obj 821 1117 lop~ 10;
#X obj 729 1117 lop~ 10;
#X obj 729 1077 r ball-lvl;
#X obj 821 1096 r ball-lvl;
#X obj 1272 252 s ball-lvl;
#X obj 1353 252 s wall-dry-lvl;
#X obj 1458 89 vsl 15 128 0 127 0 0 empty empty empty 0 -9 0 10 -262144
-1 -1 12000 1;
#X obj 1458 225 / 127;
#X obj 1458 251 s wall-wet-lvl;
#N canvas 1 93 450 300 format-for-poly 0;
#X msg 72 152 \$1 127;
#X obj 72 95 t f f;
#X obj 72 124 + 1;
#X obj 72 178 poly 25 1;
#X obj 72 68 unpack f f f;
#X obj 72 204 pack f f f f;
#X obj 72 21 inlet;
#X obj 72 238 outlet;
#X connect 0 0 3 0;
#X connect 1 0 2 0;
#X connect 1 1 5 1;
#X connect 2 0 0 0;
#X connect 3 0 5 0;
#X connect 4 0 1 0;
#X connect 4 1 5 2;
#X connect 4 2 5 3;
#X connect 5 0 7 0;
#X connect 6 0 4 0;
#X restore 861 806 pd format-for-poly;
#N canvas 263 263 450 300 format-for-poly 0;
#X msg 72 152 \$1 127;
#X obj 72 95 t f f;
#X obj 72 124 + 1;
#X obj 72 178 poly 25 1;
#X obj 72 68 unpack f f f;
#X obj 72 204 pack f f f f;
#X obj 72 21 inlet;
#X obj 72 238 outlet;
#X connect 0 0 3 0;
#X connect 1 0 2 0;
#X connect 1 1 5 1;
#X connect 2 0 0 0;
#X connect 3 0 5 0;
#X connect 4 0 1 0;
#X connect 4 1 5 2;
#X connect 4 2 5 3;
#X connect 5 0 7 0;
#X connect 6 0 4 0;
#X restore 830 768 pd format-for-poly;
#N canvas 448 311 958 998 doTheFiltering 0;
#X obj -367 -89 route list;
#X obj -366 -111 inlet;
#X obj -367 -62 route 1 2 3 4 5 6 7 8 9 10 11 12 13 14 15 16 17 18
19 20 21 22 23 24 25, f 101;
#X obj 74 186 particle-dry voice-20;
#X obj 74 228 particle-dry voice-22;
#X obj -301 50 particle-dry voice-0;
#X obj -301 71 particle-dry voice-1;
#X obj -301 92 particle-dry voice-2;
#X obj -301 114 particle-dry voice-3;
#X obj -301 135 particle-dry voice-4;
#X obj -301 156 particle-dry voice-5;
#X obj -301 177 particle-dry voice-6;
#X obj -301 198 particle-dry voice-7;
#X obj -301 219 particle-dry voice-8;
#X obj -301 240 particle-dry voice-9;
#X obj -121 106 particle-dry voice-10;
#X obj -121 126 particle-dry voice-11;
#X obj -121 146 particle-dry voice-12;
#X obj -121 166 particle-dry voice-13;
#X obj -121 186 particle-dry voice-14;
#X obj -121 206 particle-dry voice-15;
#X obj -121 226 particle-dry voice-16;
#X obj -121 246 particle-dry voice-17;
#X obj -121 266 particle-dry voice-18;
#X obj -120 286 particle-dry voice-19;
#X obj 74 207 particle-dry voice-21;
#X obj 74 249 particle-dry voice-23;
#X obj 74 270 particle-dry voice-24;
#X obj 74 290 particle-dry voice-25;
#X connect 0 0 2 0;
#X connect 1 0 0 0;
#X connect 2 0 5 0;
#X connect 2 1 6 0;
#X connect 2 2 7 0;
#X connect 2 3 8 0;
#X connect 2 4 9 0;
#X connect 2 5 10 0;
#X connect 2 6 11 0;
#X connect 2 7 12 0;
#X connect 2 8 13 0;
#X connect 2 9 14 0;
#X connect 2 10 15 0;
#X connect 2 11 16 0;
#X connect 2 12 17 0;
#X connect 2 13 18 0;
#X connect 2 14 19 0;
#X connect 2 15 20 0;
#X connect 2 16 21 0;
#X connect 2 17 22 0;
#X connect 2 18 23 0;
#X connect 2 19 24 0;
#X connect 2 20 3 0;
#X connect 2 21 25 0;
#X connect 2 22 4 0;
#X connect 2 23 26 0;
#X connect 2 24 27 0;
#X connect 2 25 28 0;
#X restore 830 853 pd doTheFiltering;
#N canvas 947 109 958 998 doTheFiltering2 0;
#X obj -367 -89 route list;
#X obj -366 -111 inlet;
#X obj -367 -62 route 1 2 3 4 5 6 7 8 9 10 11 12 13 14 15 16 17 18
19 20 21 22 23 24 25, f 101;
#X obj 74 186 particle-wet voice-20;
#X obj 74 290 particle-wet voice-25;
#X obj 74 270 particle-wet voice-24;
#X obj -301 50 particle-wet voice-0;
#X obj -301 71 particle-wet voice-1;
#X obj -301 92 particle-wet voice-2;
#X obj -301 114 particle-wet voice-3;
#X obj -301 135 particle-wet voice-4;
#X obj -301 156 particle-wet voice-5;
#X obj -301 177 particle-wet voice-6;
#X obj -301 198 particle-wet voice-7;
#X obj -301 219 particle-wet voice-8;
#X obj -301 240 particle-wet voice-9;
#X obj -121 106 particle-wet voice-10;
#X obj -121 126 particle-wet voice-11;
#X obj -121 146 particle-wet voice-12;
#X obj -121 166 particle-wet voice-13;
#X obj -121 186 particle-wet voice-14;
#X obj -121 206 particle-wet voice-15;
#X obj -121 226 particle-wet voice-16;
#X obj -121 246 particle-wet voice-17;
#X obj -121 266 particle-wet voice-18;
#X obj -120 286 particle-wet voice-19;
#X obj 74 207 particle-wet voice-21;
#X obj 74 228 particle-wet voice-22;
#X obj 74 249 particle-wet voice-23;
#X connect 0 0 2 0;
#X connect 1 0 0 0;
#X connect 2 0 6 0;
#X connect 2 1 7 0;
#X connect 2 2 8 0;
#X connect 2 3 9 0;
#X connect 2 4 10 0;
#X connect 2 5 11 0;
#X connect 2 6 12 0;
#X connect 2 7 13 0;
#X connect 2 8 14 0;
#X connect 2 9 15 0;
#X connect 2 10 16 0;
#X connect 2 11 17 0;
#X connect 2 12 18 0;
#X connect 2 13 19 0;
#X connect 2 14 20 0;
#X connect 2 15 21 0;
#X connect 2 16 22 0;
#X connect 2 17 23 0;
#X connect 2 18 24 0;
#X connect 2 19 25 0;
#X connect 2 20 3 0;
#X connect 2 21 26 0;
#X connect 2 22 27 0;
#X connect 2 23 28 0;
#X connect 2 24 5 0;
#X connect 2 25 4 0;
#X restore 861 879 pd doTheFiltering2;
#X obj 339 503 r ambiant;
#X obj 632 570 r impact;
#X obj 1198 1180 catch~ impact-right-wall;
#X obj 330 1119 *~ 0.5;
#X obj 242 990 lop~ 5000;
#X obj 242 1011 lop~ 5000;
#X obj 830 717 route 0;
#X obj 1197 1356 *~ 0.5;
#X obj 906 1353 *~ 0.5;
#X obj 241 908 clip~ 0 1.5;
#X msg 91 121 10 150 300 870 2250 1500;
#X obj 841 324 s synth-decay;
#X obj 882 360 s synth-gain;
#X obj 969 192 vsl 15 128 0 500 0 0 empty empty empty 0 -9 0 10 -262144
-1 -1 6604 1;
#X obj 903 171 vsl 15 128 0 127 0 0 empty empty empty 0 -9 0 10 -262144
-1 -1 200 1;
#X floatatom 815 276 5 0 0 0 - - -, f 5;
#X floatatom 960 400 5 0 0 0 - - -, f 5;
#X obj 364 932 lop~ 5;
#X obj 364 888 * 50;
#X obj 1070 314 vsl 15 128 0 127 0 0 empty empty empty 0 -9 0 10 -262144
-1 -1 12700 1;
#X floatatom 1066 462 5 0 0 0 - - -, f 5;
#X obj 983 482 s synth-q;
#X obj 711 1222 *~ 0.1;
#X obj 803 1225 *~ 0.1;
#X msg 1001 532 impact 1 1 1 0.5;
#X msg 1034 574 impact 1 0.5 1 0.5;
#X msg 1056 607 impact 1 1 0.5 0.5;
#X msg 1078 631 impact 1 0.5 0.5 0.5;
#X msg 1109 665 impact 1 0.1 0.5 0.5;
#X msg 1120 699 impact 1 0.5 0.1 0.5;
#X msg 1146 727 impact 1 0.1 0.1 0.5;
#X msg 45 33 1 359 426 1748 3000 250;
#X floatatom 852 454 5 0 0 0 - - -, f 5;
#X obj 902 43 loadbang;
#X msg 902 65 2;
#X obj 969 132 loadbang;
#X msg 969 154 260;
#X msg 1160 350 127;
#X obj 1158 314 loadbang;
#X obj 1056 11 loadbang;
#X floatatom 1019 230 5 0 0 0 - - -, f 5;
#X msg 1058 47 5;
#X obj 1164 6 loadbang;
#X msg 1166 42 15;
#X obj 1286 10 loadbang;
#X floatatom 1236 142 5 0 0 0 - - -, f 5;
#X msg 1288 46 100;
#X obj 1368 5 loadbang;
#X msg 1370 41 60;
#X obj 1494 9 loadbang;
#X msg 1496 45 120;
#X text 460 214 comment;
#X obj 388 59 loadbang;
#X msg 388 81 0;
#X obj 510 42 m_musicscales 80;
#X msg 720 24 80;
#X connect 1 0 23 0;
#X connect 2 0 1 0;
#X connect 3 0 2 0;
#X connect 5 0 4 0;
#X connect 6 0 20 0;
#X connect 8 0 0 1;
#X connect 9 0 0 0;
#X connect 10 0 11 0;
#X connect 10 0 20 1;
#X connect 12 0 13 0;
#X connect 12 0 20 2;
#X connect 14 0 15 0;
#X connect 14 0 20 3;
#X connect 16 0 17 0;
#X connect 16 0 20 4;
#X connect 18 0 19 0;
#X connect 18 0 20 5;
#X connect 20 0 4 0;
#X connect 21 0 27 0;
#X connect 22 0 21 0;
#X connect 22 0 55 0;
#X connect 23 0 22 0;
#X connect 24 0 25 0;
#X connect 24 0 28 0;
#X connect 26 0 123 0;
#X connect 27 0 26 0;
#X connect 29 0 4 0;
#X connect 30 0 31 0;
#X connect 30 0 171 2;
#X connect 36 0 35 0;
#X connect 37 0 8 0;
#X connect 38 0 9 0;
#X connect 39 0 148 0;
#X connect 40 0 41 0;
#X connect 41 0 30 0;
#X connect 42 0 172 0;
#X connect 43 0 64 0;
#X connect 44 0 45 0;
#X connect 44 0 45 1;
#X connect 45 0 63 0;
#X connect 46 0 49 0;
#X connect 47 0 46 0;
#X connect 47 0 48 0;
#X connect 48 0 51 1;
#X connect 49 0 52 1;
#X connect 50 0 47 0;
#X connect 51 0 38 0;
#X connect 52 0 37 0;
#X connect 54 0 56 0;
#X connect 55 0 54 0;
#X connect 56 0 57 0;
#X connect 57 0 60 0;
#X connect 57 0 135 0;
#X connect 57 2 61 0;
#X connect 58 0 121 0;
#X connect 59 0 134 0;
#X connect 61 0 62 0;
#X connect 62 0 50 0;
#X connect 62 0 53 0;
#X connect 63 0 126 0;
#X connect 64 0 2 0;
#X connect 65 0 52 0;
#X connect 66 0 120 0;
#X connect 67 0 65 0;
#X connect 68 0 67 1;
#X connect 69 0 66 1;
#X connect 70 0 65 1;
#X connect 71 0 69 0;
#X connect 72 0 68 0;
#X connect 73 0 37 0;
#X connect 74 0 124 0;
#X connect 75 0 73 0;
#X connect 76 0 75 1;
#X connect 77 0 74 1;
#X connect 78 0 73 1;
#X connect 79 0 38 0;
#X connect 80 0 125 0;
#X connect 81 0 79 0;
#X connect 82 0 81 1;
#X connect 83 0 80 1;
#X connect 84 0 79 1;
#X connect 85 0 86 0;
#X connect 85 0 157 0;
#X connect 86 0 87 0;
#X connect 88 0 89 0;
#X connect 89 0 90 0;
#X connect 91 0 92 0;
#X connect 91 0 162 0;
#X connect 92 0 108 0;
#X connect 93 0 94 0;
#X connect 94 0 109 0;
#X connect 95 0 80 0;
#X connect 95 0 81 0;
#X connect 96 0 102 0;
#X connect 97 0 103 0;
#X connect 98 0 83 0;
#X connect 99 0 82 0;
#X connect 100 0 77 0;
#X connect 101 0 76 0;
#X connect 102 0 139 0;
#X connect 103 0 140 0;
#X connect 104 0 103 1;
#X connect 105 0 102 1;
#X connect 106 0 105 0;
#X connect 107 0 104 0;
#X connect 110 0 111 0;
#X connect 111 0 112 0;
#X connect 113 0 116 0;
#X connect 114 0 115 0;
#X connect 117 0 54 0;
#X connect 118 0 27 0;
#X connect 119 0 75 0;
#X connect 119 0 74 0;
#X connect 120 0 51 0;
#X connect 121 0 122 0;
#X connect 122 0 66 0;
#X connect 122 0 67 0;
#X connect 123 0 114 0;
#X connect 123 1 113 0;
#X connect 124 0 37 0;
#X connect 125 0 38 0;
#X connect 126 0 58 0;
#X connect 127 0 4 0;
#X connect 130 0 129 0;
#X connect 130 0 133 0;
#X connect 131 0 128 0;
#X connect 131 0 132 0;
#X connect 134 0 58 1;
#X connect 135 0 59 0;
#X connect 136 0 137 0;
#X connect 136 0 138 0;
#X connect 139 0 38 0;
#X connect 140 0 37 0;
#X connect 141 0 26 0;
#X connect 142 0 26 0;
#X connect 143 0 26 0;
#X connect 144 0 26 0;
#X connect 145 0 26 0;
#X connect 146 0 26 0;
#X connect 147 0 26 0;
#X connect 148 0 4 0;
#X connect 150 0 151 0;
#X connect 151 0 131 0;
#X connect 152 0 153 0;
#X connect 153 0 130 0;
#X connect 154 0 136 0;
#X connect 155 0 154 0;
#X connect 156 0 158 0;
#X connect 158 0 85 0;
#X connect 159 0 160 0;
#X connect 160 0 88 0;
#X connect 161 0 163 0;
#X connect 163 0 91 0;
#X connect 164 0 165 0;
#X connect 165 0 93 0;
#X connect 166 0 167 0;
#X connect 167 0 110 0;
#X connect 169 0 170 0;
#X connect 170 0 24 0;
#X connect 171 1 32 0;
#X connect 172 0 36 0;
