#N canvas 1 110 1905 998 10;
#X obj 1005 840 dac~;
#X obj 5 167 s formants;
#X obj 1146 735 tanhtable~;
#X obj 1066 734 tanh~;
#X obj 973 731 tanh~;
#X obj 23 331 route impact;
#X obj 23 307 list trim;
#X obj 1067 698 clip~ -1 1;
#X obj 973 698 clip~ -1 1;
#X obj 5 17 loadbang;
#X obj 497 429 list trim;
#X obj 497 451 route ambient;
#N canvas 931 383 931 679 tincan 0;
#X obj -2 0 inlet~;
#X obj 76 253 outlet~;
#X obj -2 135 bp~ 1 1;
#X obj 76 135 bp~ 1 1;
#X obj 143 136 bp~ 1 1;
#X obj 213 136 bp~ 1 1;
#X obj 95 -44 loadbang;
#X obj 94 63 unpack f f f f f f;
#X floatatom 278 119 5 0 0 0 - - -, f 5;
#X msg 94 -4 1 359 426 1748 3000 500;
#X obj 436 -19 inlet;
#X obj 76 190 *~ 10;
#X obj -2 158 *~ 0.99;
#X obj 76 157 *~ 0.89;
#X obj 143 157 *~ 0.79;
#X obj 213 157 *~ 0.79;
#X obj 76 211 clip~ -1 1;
#X connect 0 0 2 0;
#X connect 0 0 3 0;
#X connect 0 0 4 0;
#X connect 0 0 5 0;
#X connect 2 0 12 0;
#X connect 3 0 13 0;
#X connect 4 0 14 0;
#X connect 5 0 15 0;
#X connect 6 0 9 0;
#X connect 7 1 2 1;
#X connect 7 2 3 1;
#X connect 7 3 4 1;
#X connect 7 4 5 1;
#X connect 7 5 5 2;
#X connect 7 5 4 2;
#X connect 7 5 3 2;
#X connect 7 5 2 2;
#X connect 7 5 8 0;
#X connect 9 0 7 0;
#X connect 10 0 7 0;
#X connect 11 0 16 0;
#X connect 12 0 11 0;
#X connect 13 0 11 0;
#X connect 14 0 11 0;
#X connect 15 0 11 0;
#X connect 16 0 1 0;
#X coords 0 0 1 1 240 160 0;
#X restore 1443 477 pd tincan;
#X obj 1377 451 *~;
#X obj 1442 450 *~;
#X obj 1460 408 lop~ 10;
#X obj 1395 408 lop~ 10;
#X obj 1503 447 r formants;
#N canvas 917 382 931 679 tincan 0;
#X obj -2 0 inlet~;
#X obj 78 339 outlet~;
#X obj -2 135 bp~ 1 1;
#X obj 76 135 bp~ 1 1;
#X obj 143 136 bp~ 1 1;
#X obj 213 136 bp~ 1 1;
#X obj 95 -44 loadbang;
#X floatatom 278 119 5 0 0 0 - - -, f 5;
#X msg 94 -4 1 359 426 1748 3000 500;
#X obj 436 -19 inlet;
#X obj 78 276 *~ 10;
#X obj 78 297 clip~ -1 1;
#X obj -2 158 *~ 0.99;
#X obj 76 157 *~ 0.89;
#X obj 143 157 *~ 0.79;
#X obj 213 157 *~ 0.79;
#X obj 358 120 nbx 5 14 -1e+37 1e+37 0 0 empty empty empty 0 -8 0 10
-262144 -1 -1 359 256;
#X obj 368 176 nbx 5 14 -1e+37 1e+37 0 0 empty empty empty 0 -8 0 10
-262144 -1 -1 0 256;
#X obj 101 34 unpack f f f f f f f;
#X connect 0 0 2 0;
#X connect 0 0 3 0;
#X connect 0 0 4 0;
#X connect 0 0 5 0;
#X connect 2 0 12 0;
#X connect 3 0 13 0;
#X connect 4 0 14 0;
#X connect 5 0 15 0;
#X connect 6 0 8 0;
#X connect 8 0 18 0;
#X connect 9 0 18 0;
#X connect 10 0 11 0;
#X connect 11 0 1 0;
#X connect 12 0 10 0;
#X connect 13 0 10 0;
#X connect 14 0 10 0;
#X connect 15 0 10 0;
#X connect 18 1 2 1;
#X connect 18 1 16 0;
#X connect 18 2 3 1;
#X connect 18 3 4 1;
#X connect 18 4 5 1;
#X connect 18 5 5 2;
#X connect 18 5 4 2;
#X connect 18 5 3 2;
#X connect 18 5 2 2;
#X connect 18 5 7 0;
#X connect 18 6 10 1;
#X coords 0 0 1 1 240 160 0;
#X restore 1229 479 pd tincan;
#X obj 1163 457 *~;
#X obj 1228 456 *~;
#X obj 1246 414 lop~ 10;
#X obj 1181 414 lop~ 10;
#X obj 1289 449 r formants;
#X obj 636 75 vsl 15 128 0 127 0 0 empty empty empty 0 -9 0 10 -262144
-1 -1 2200 1;
#X obj 636 211 / 127;
#X obj 636 237 s ambient-dry;
#X obj 739 75 vsl 15 128 0 127 0 0 empty empty empty 0 -9 0 10 -262144
-1 -1 3200 1;
#X obj 739 211 / 127;
#X obj 739 237 s ambient-wet;
#X obj 842 75 vsl 15 128 0 127 0 0 empty empty empty 0 -9 0 10 -262144
-1 -1 800 1;
#X obj 842 211 / 127;
#X obj 1055 75 vsl 15 128 0 127 0 0 empty empty empty 0 -9 0 10 -262144
-1 -1 900 1;
#X obj 1055 211 / 127;
#X obj 1164 305 catch~ impact-left-wall;
#X obj 718 313 catch~ impact-left-ball;
#X obj 925 305 catch~ impact-right-ball;
#X obj 1181 374 r wall-dry-lvl;
#X obj 1246 393 r wall-wet-lvl;
#X obj 1395 356 r wall-dry-lvl;
#X obj 1460 376 r wall-wet-lvl;
#X obj 718 408 *~;
#X obj 926 421 *~;
#X obj 943 393 lop~ 10;
#X obj 736 384 lop~ 10;
#X obj 1055 237 s wall-dry-lvl;
#X obj 1160 74 vsl 15 128 0 127 0 0 empty empty empty 0 -9 0 10 -262144
-1 -1 11000 1;
#X obj 1160 210 / 127;
#X obj 1160 236 s wall-wet-lvl;
#N canvas 1 105 450 300 format-for-poly 0;
#X msg 72 152 \$1 127;
#X obj 72 95 t f f;
#X obj 72 124 + 1;
#X obj 72 178 poly 25 1;
#X obj 72 21 inlet;
#X obj 72 238 outlet;
#X obj 72 204 pack f f f f f;
#X obj 72 68 unpack f f f f;
#X connect 0 0 3 0;
#X connect 1 0 2 0;
#X connect 1 1 6 1;
#X connect 2 0 0 0;
#X connect 3 0 6 0;
#X connect 4 0 7 0;
#X connect 6 0 5 0;
#X connect 7 0 1 0;
#X connect 7 1 6 2;
#X connect 7 2 6 3;
#X connect 7 3 6 4;
#X restore 69 443 pd format-for-poly;
#N canvas 247 295 450 300 format-for-poly 0;
#X msg 72 152 \$1 127;
#X obj 72 95 t f f;
#X obj 72 124 + 1;
#X obj 72 68 unpack f f f;
#X obj 72 204 pack f f f f;
#X obj 72 21 inlet;
#X obj 72 238 outlet;
#X obj 72 178 poly 10 1;
#X connect 0 0 7 0;
#X connect 1 0 2 0;
#X connect 1 1 4 1;
#X connect 2 0 0 0;
#X connect 3 0 1 0;
#X connect 3 1 4 2;
#X connect 3 2 4 3;
#X connect 4 0 6 0;
#X connect 5 0 3 0;
#X connect 7 0 4 0;
#X restore 23 408 pd format-for-poly;
#X obj 23 284 r impact;
#X obj 1377 302 catch~ impact-right-wall;
#X obj 23 357 route 0;
#X obj 1376 478 *~ 0.5;
#X obj 1163 481 *~ 0.5;
#X obj 636 20 loadbang;
#X floatatom 658 189 5 0 0 0 - - -, f 5;
#X obj 739 21 loadbang;
#X obj 842 22 loadbang;
#X floatatom 861 191 5 0 0 0 - - -, f 5;
#X obj 1055 22 loadbang;
#X obj 1160 23 loadbang;
#X obj 866 893 s feedback;
#X obj 866 824 - 50;
#X obj 866 848 / 25;
#X obj 866 871 clip 0 1;
#X obj 5 194 r kit-formants;
#X obj 5 243 s formants;
#X obj 5 219 list prepend 1;
#X msg 5 40 1 359 426 1748 3000 1000 10;
#X msg 20 70 1 554 752 1852 5211 1000 10;
#X msg 33 99 1 270 540 2300 3000 1000 10;
#X msg 51 128 10 150 300 870 2250 1500 10;
#X obj 497 395 r ambient;
#X obj 972 796 hip~ 20;
#X obj 1064 794 hip~ 20;
#X obj 866 796 env~ 512 256;
#X floatatom 762 189 5 0 0 0 - - -, f 5;
#X obj 718 470 *~ 0.05;
#X obj 925 477 *~ 0.05;
#X floatatom 1074 191 5 0 0 0 - - -, f 5;
#X floatatom 1184 187 5 0 0 0 - - -, f 5;
#N canvas 8 110 1905 998 poly-grain 0;
#X obj 213 184 route list;
#X obj 214 162 inlet;
#X obj 213 211 route 1 2 3 4 5 6 7 8 9 10 11 12 13 14 15 16 17 18 19
20 21 22 23 24 25, f 101;
#X obj 279 323 particle-dry voice-0;
#X obj 279 344 particle-dry voice-1;
#X obj 279 365 particle-dry voice-2;
#X obj 279 387 particle-dry voice-3;
#X obj 279 408 particle-dry voice-4;
#X obj 279 429 particle-dry voice-5;
#X obj 279 450 particle-dry voice-6;
#X obj 279 471 particle-dry voice-7;
#X obj 279 492 particle-dry voice-8;
#X obj 279 513 particle-dry voice-9;
#X obj 459 379 particle-dry voice-10;
#X connect 0 0 2 0;
#X connect 1 0 0 0;
#X connect 2 0 3 0;
#X connect 2 1 4 0;
#X connect 2 2 5 0;
#X connect 2 3 6 0;
#X connect 2 4 7 0;
#X connect 2 5 8 0;
#X connect 2 6 9 0;
#X connect 2 7 10 0;
#X connect 2 8 11 0;
#X connect 2 9 12 0;
#X connect 2 10 13 0;
#X restore 23 493 pd poly-grain;
#N canvas 937 110 958 998 poly-grain-wall 1;
#X obj 42 172 route list;
#X obj 43 150 inlet;
#X obj 42 199 route 1 2 3 4 5 6 7 8 9 10 11 12 13 14 15 16 17 18 19
20 21 22 23 24 25, f 101;
#X obj 108 311 particle-wet voice-0;
#X obj 288 367 particle-wet voice-10;
#X obj 483 447 particle-wet voice-20;
#X obj 483 551 particle-wet voice-25;
#X obj 108 396 particle-wet voice-4;
#X obj 483 531 particle-wet voice-24;
#X obj 108 332 particle-wet voice-1;
#X obj 108 353 particle-wet voice-2;
#X obj 108 375 particle-wet voice-3;
#X obj 108 417 particle-wet voice-5;
#X obj 108 438 particle-wet voice-6;
#X obj 108 459 particle-wet voice-7;
#X obj 108 480 particle-wet voice-8;
#X obj 108 501 particle-wet voice-9;
#X obj 288 387 particle-wet voice-11;
#X obj 288 407 particle-wet voice-12;
#X obj 288 427 particle-wet voice-13;
#X obj 288 447 particle-wet voice-14;
#X obj 288 467 particle-wet voice-15;
#X obj 288 487 particle-wet voice-16;
#X obj 288 507 particle-wet voice-17;
#X obj 288 527 particle-wet voice-18;
#X obj 289 547 particle-wet voice-19;
#X obj 483 468 particle-wet voice-21;
#X obj 483 489 particle-wet voice-22;
#X obj 483 510 particle-wet voice-23;
#X connect 0 0 2 0;
#X connect 1 0 0 0;
#X connect 2 0 3 0;
#X connect 2 1 9 0;
#X connect 2 2 10 0;
#X connect 2 3 11 0;
#X connect 2 4 7 0;
#X connect 2 5 12 0;
#X connect 2 6 13 0;
#X connect 2 7 14 0;
#X connect 2 8 15 0;
#X connect 2 9 16 0;
#X connect 2 10 4 0;
#X connect 2 11 17 0;
#X connect 2 12 18 0;
#X connect 2 13 19 0;
#X connect 2 14 20 0;
#X connect 2 15 21 0;
#X connect 2 16 22 0;
#X connect 2 17 23 0;
#X connect 2 18 24 0;
#X connect 2 19 25 0;
#X connect 2 20 5 0;
#X connect 2 21 26 0;
#X connect 2 22 27 0;
#X connect 2 23 28 0;
#X connect 2 24 8 0;
#X connect 2 25 6 0;
#X restore 69 524 pd poly-grain-wall;
#N canvas 450 194 897 744 ambiant-noise 0;
#X obj 83 251 noise~;
#X obj 84 279 *~;
#X obj 456 287 lop~ 10;
#X obj 238 614 *~;
#X obj 293 611 *~;
#X obj 245 96 unpack f f f;
#X obj 85 364 *~;
#X obj 207 327 clip 0 1;
#X floatatom 264 204 10 0 0 0 - - -, f 10;
#N canvas 705 156 1114 907 tincan 0;
#X obj -2 0 inlet~;
#X obj 76 253 outlet~;
#X obj -2 135 bp~ 1 1;
#X obj 76 135 bp~ 1 1;
#X obj 143 136 bp~ 1 1;
#X obj 213 136 bp~ 1 1;
#X obj 95 -44 loadbang;
#X obj 94 63 unpack f f f f f f;
#X floatatom 278 119 5 0 0 0 - - -, f 5;
#X msg 94 -4 1 359 426 1748 3000 500;
#X obj 436 -19 inlet;
#X obj 76 190 *~ 10;
#X obj -2 158 *~ 0.99;
#X obj 76 157 *~ 0.89;
#X obj 143 157 *~ 0.79;
#X obj 213 157 *~ 0.79;
#X obj 76 211 clip~ -1 1;
#X connect 0 0 2 0;
#X connect 0 0 3 0;
#X connect 0 0 4 0;
#X connect 0 0 5 0;
#X connect 2 0 12 0;
#X connect 3 0 13 0;
#X connect 4 0 14 0;
#X connect 5 0 15 0;
#X connect 6 0 9 0;
#X connect 7 1 2 1;
#X connect 7 2 3 1;
#X connect 7 3 4 1;
#X connect 7 4 5 1;
#X connect 7 5 5 2;
#X connect 7 5 4 2;
#X connect 7 5 3 2;
#X connect 7 5 2 2;
#X connect 7 5 8 0;
#X connect 9 0 7 0;
#X connect 10 0 7 0;
#X connect 11 0 16 0;
#X connect 12 0 11 0;
#X connect 13 0 11 0;
#X connect 14 0 11 0;
#X connect 15 0 11 0;
#X connect 16 0 1 0;
#X coords 0 0 1 1 240 160 0;
#X restore 239 535 pd tincan;
#X obj 173 503 *~;
#X obj 238 502 *~;
#X obj 256 460 lop~ 10;
#X obj 191 460 lop~ 10;
#X obj 299 503 r formants;
#X obj 191 413 r ambient-dry;
#X obj 256 437 r ambient-wet;
#X obj 173 535 *~ 0.5;
#X obj 85 406 lop~ 5000;
#X obj 207 348 lop~ 5;
#X obj 372 288 lop~ 10;
#X obj 364 229 swap 1;
#X obj 362 252 -;
#X obj 207 304 * 1;
#X floatatom 383 141 10 0 0 0 - - -, f 10;
#X obj 244 44 inlet;
#X obj 237 672 outlet~;
#X obj 301 668 outlet~;
#X obj 84 324 clip~ 0.5 1.5;
#X obj 85 300 *~ 1000;
#X obj 85 427 lop~ 800;
#X connect 0 0 1 0;
#X connect 0 0 1 1;
#X connect 1 0 29 0;
#X connect 2 0 4 1;
#X connect 3 0 26 0;
#X connect 4 0 27 0;
#X connect 5 0 8 0;
#X connect 5 0 23 0;
#X connect 5 1 21 0;
#X connect 5 1 2 0;
#X connect 5 1 24 0;
#X connect 6 0 18 0;
#X connect 7 0 19 0;
#X connect 9 0 4 0;
#X connect 10 0 17 0;
#X connect 11 0 9 0;
#X connect 12 0 11 1;
#X connect 13 0 10 1;
#X connect 14 0 9 1;
#X connect 15 0 13 0;
#X connect 16 0 12 0;
#X connect 17 0 3 0;
#X connect 18 0 30 0;
#X connect 18 0 11 0;
#X connect 19 0 6 1;
#X connect 20 0 3 1;
#X connect 21 0 22 0;
#X connect 21 1 22 1;
#X connect 22 0 20 0;
#X connect 23 0 7 0;
#X connect 25 0 5 0;
#X connect 28 0 6 0;
#X connect 29 0 28 0;
#X connect 30 0 10 0;
#X restore 497 473 pd ambiant-noise;
#N canvas 917 382 931 679 tincan 0;
#X obj -2 0 inlet~;
#X obj 78 339 outlet~;
#X obj -2 135 bp~ 1 1;
#X obj 76 135 bp~ 1 1;
#X obj 143 136 bp~ 1 1;
#X obj 213 136 bp~ 1 1;
#X obj 95 -44 loadbang;
#X floatatom 278 119 5 0 0 0 - - -, f 5;
#X msg 94 -4 1 359 426 1748 3000 500;
#X obj 436 -19 inlet;
#X obj 78 276 *~ 10;
#X obj 78 297 clip~ -1 1;
#X obj -2 158 *~ 0.99;
#X obj 76 157 *~ 0.89;
#X obj 143 157 *~ 0.79;
#X obj 213 157 *~ 0.79;
#X obj 358 120 nbx 5 14 -1e+37 1e+37 0 0 empty empty empty 0 -8 0 10
-262144 -1 -1 359 256;
#X obj 368 176 nbx 5 14 -1e+37 1e+37 0 0 empty empty empty 0 -8 0 10
-262144 -1 -1 0 256;
#X obj 101 34 unpack f f f f f f f;
#X connect 0 0 2 0;
#X connect 0 0 3 0;
#X connect 0 0 4 0;
#X connect 0 0 5 0;
#X connect 2 0 12 0;
#X connect 3 0 13 0;
#X connect 4 0 14 0;
#X connect 5 0 15 0;
#X connect 6 0 8 0;
#X connect 8 0 18 0;
#X connect 9 0 18 0;
#X connect 10 0 11 0;
#X connect 11 0 1 0;
#X connect 12 0 10 0;
#X connect 13 0 10 0;
#X connect 14 0 10 0;
#X connect 15 0 10 0;
#X connect 18 1 2 1;
#X connect 18 1 16 0;
#X connect 18 2 3 1;
#X connect 18 3 4 1;
#X connect 18 4 5 1;
#X connect 18 5 5 2;
#X connect 18 5 4 2;
#X connect 18 5 3 2;
#X connect 18 5 2 2;
#X connect 18 5 7 0;
#X connect 18 6 10 1;
#X coords 0 0 1 1 240 160 0;
#X restore 786 470 pd tincan;
#X obj 785 447 *~;
#X obj 803 405 lop~ 10;
#X obj 846 440 r formants;
#N canvas 917 382 931 679 tincan 0;
#X obj -2 0 inlet~;
#X obj 78 339 outlet~;
#X obj -2 135 bp~ 1 1;
#X obj 76 135 bp~ 1 1;
#X obj 143 136 bp~ 1 1;
#X obj 213 136 bp~ 1 1;
#X obj 95 -44 loadbang;
#X floatatom 278 119 5 0 0 0 - - -, f 5;
#X msg 94 -4 1 359 426 1748 3000 500;
#X obj 436 -19 inlet;
#X obj 78 276 *~ 10;
#X obj 78 297 clip~ -1 1;
#X obj -2 158 *~ 0.99;
#X obj 76 157 *~ 0.89;
#X obj 143 157 *~ 0.79;
#X obj 213 157 *~ 0.79;
#X obj 358 120 nbx 5 14 -1e+37 1e+37 0 0 empty empty empty 0 -8 0 10
-262144 -1 -1 359 256;
#X obj 368 176 nbx 5 14 -1e+37 1e+37 0 0 empty empty empty 0 -8 0 10
-262144 -1 -1 0 256;
#X obj 101 34 unpack f f f f f f f;
#X connect 0 0 2 0;
#X connect 0 0 3 0;
#X connect 0 0 4 0;
#X connect 0 0 5 0;
#X connect 2 0 12 0;
#X connect 3 0 13 0;
#X connect 4 0 14 0;
#X connect 5 0 15 0;
#X connect 6 0 8 0;
#X connect 8 0 18 0;
#X connect 9 0 18 0;
#X connect 10 0 11 0;
#X connect 11 0 1 0;
#X connect 12 0 10 0;
#X connect 13 0 10 0;
#X connect 14 0 10 0;
#X connect 15 0 10 0;
#X connect 18 1 2 1;
#X connect 18 1 16 0;
#X connect 18 2 3 1;
#X connect 18 3 4 1;
#X connect 18 4 5 1;
#X connect 18 5 5 2;
#X connect 18 5 4 2;
#X connect 18 5 3 2;
#X connect 18 5 2 2;
#X connect 18 5 7 0;
#X connect 18 6 10 1;
#X coords 0 0 1 1 240 160 0;
#X restore 990 477 pd tincan;
#X obj 989 454 *~;
#X obj 1007 413 lop~ 10;
#X obj 1050 447 r formants;
#X obj 947 74 vsl 15 128 0 127 0 0 empty empty empty 0 -9 0 10 -262144
-1 -1 9600 1;
#X obj 947 210 / 127;
#X obj 947 21 loadbang;
#X floatatom 966 190 5 0 0 0 - - -, f 5;
#X obj 842 237 s ball-dry-lvl;
#X obj 947 237 s ball-wet-lvl;
#X obj 736 337 r ball-dry-lvl;
#X obj 1007 352 r ball-wet-lvl;
#X obj 943 331 r ball-dry-lvl;
#X obj 803 357 r ball-wet-lvl;
#X msg 636 47 20;
#X msg 739 47 32;
#X msg 947 47 70;
#X msg 1160 47 80;
#X msg 842 48 25;
#X msg 1055 46 25;
#X connect 3 0 76 0;
#X connect 3 0 77 0;
#X connect 4 0 75 0;
#X connect 4 0 77 0;
#X connect 5 0 53 0;
#X connect 6 0 5 0;
#X connect 7 0 3 0;
#X connect 8 0 4 0;
#X connect 9 0 70 0;
#X connect 10 0 11 0;
#X connect 11 0 85 0;
#X connect 12 0 7 0;
#X connect 13 0 54 0;
#X connect 14 0 12 0;
#X connect 15 0 14 1;
#X connect 16 0 13 1;
#X connect 17 0 12 1;
#X connect 18 0 8 0;
#X connect 19 0 55 0;
#X connect 20 0 18 0;
#X connect 21 0 20 1;
#X connect 22 0 19 1;
#X connect 23 0 18 1;
#X connect 24 0 25 0;
#X connect 24 0 57 0;
#X connect 25 0 26 0;
#X connect 27 0 28 0;
#X connect 27 0 78 0;
#X connect 28 0 29 0;
#X connect 30 0 31 0;
#X connect 30 0 60 0;
#X connect 31 0 98 0;
#X connect 32 0 33 0;
#X connect 32 0 81 0;
#X connect 33 0 45 0;
#X connect 34 0 19 0;
#X connect 34 0 20 0;
#X connect 35 0 41 0;
#X connect 36 0 42 0;
#X connect 37 0 22 0;
#X connect 38 0 21 0;
#X connect 39 0 16 0;
#X connect 40 0 15 0;
#X connect 41 0 79 0;
#X connect 41 0 87 0;
#X connect 42 0 80 0;
#X connect 42 0 91 0;
#X connect 43 0 42 1;
#X connect 44 0 41 1;
#X connect 46 0 47 0;
#X connect 46 0 82 0;
#X connect 47 0 48 0;
#X connect 49 0 84 0;
#X connect 50 0 83 0;
#X connect 51 0 6 0;
#X connect 52 0 14 0;
#X connect 52 0 13 0;
#X connect 53 0 50 0;
#X connect 53 1 49 0;
#X connect 54 0 7 0;
#X connect 55 0 8 0;
#X connect 56 0 104 0;
#X connect 58 0 105 0;
#X connect 59 0 108 0;
#X connect 61 0 109 0;
#X connect 62 0 107 0;
#X connect 64 0 65 0;
#X connect 65 0 66 0;
#X connect 66 0 63 0;
#X connect 67 0 69 0;
#X connect 69 0 68 0;
#X connect 70 0 1 0;
#X connect 71 0 1 0;
#X connect 72 0 1 0;
#X connect 73 0 1 0;
#X connect 74 0 10 0;
#X connect 75 0 0 0;
#X connect 76 0 0 1;
#X connect 77 0 64 0;
#X connect 79 0 8 0;
#X connect 80 0 7 0;
#X connect 85 0 8 0;
#X connect 85 1 7 0;
#X connect 86 0 8 0;
#X connect 87 0 86 0;
#X connect 88 0 87 1;
#X connect 89 0 86 1;
#X connect 90 0 7 0;
#X connect 91 0 90 0;
#X connect 92 0 91 1;
#X connect 93 0 90 1;
#X connect 94 0 95 0;
#X connect 94 0 97 0;
#X connect 95 0 99 0;
#X connect 96 0 106 0;
#X connect 100 0 44 0;
#X connect 101 0 92 0;
#X connect 102 0 43 0;
#X connect 103 0 88 0;
#X connect 104 0 24 0;
#X connect 105 0 27 0;
#X connect 106 0 94 0;
#X connect 107 0 46 0;
#X connect 108 0 30 0;
#X connect 109 0 32 0;
