#N canvas 562 316 988 597 10;
#X obj 338 8 r impact;
#X obj 616 254 *~;
#X obj 618 357 dac~;
#X obj 672 236 vline~;
#X obj 616 276 +~ 0.25;
#X obj 628 322 cos~;
#X obj 672 73 tgl 15 0 empty empty empty 17 7 0 10 -262144 -1 -1 0
1;
#X obj 672 115 random 1000;
#X obj 672 137 / 1000;
#X obj 672 93 vmetro 20 100;
#X obj 798 24 hsl 128 15 1 5000 1 0 empty empty empty -2 -8 0 10 -262144
-1 -1 0 1;
#X obj 691 40 + 20;
#X obj 732 63 * 2;
#X floatatom 795 44 5 0 0 0 - - -, f 5;
#X obj 339 50 route impact;
#X msg 775 221 1 \, 0 100;
#X obj 339 29 list trim;
#X obj 341 100 unpack f f f f;
#X msg 672 201 \$1 4 \, 0 4 4;
#X obj 629 303 *~ 1;
#X obj 605 214 osc~ 190;
#X obj 90 246 noise~;
#X obj 182 50 list trim;
#X obj 181 29 r ambient;
#X obj 182 71 route ambient;
#X obj 198 154 unpack f f f;
#X obj 188 270 clip 0 1;
#X obj 190 334 sig~;
#X obj 145 391 *~;
#X obj 150 438 dac~;
#X floatatom 330 321 15 0 0 0 - - -, f 15;
#X floatatom 201 241 5 0 0 0 - - -, f 5;
#X obj 304 356 sig~;
#X obj 252 395 *~;
#X obj 315 246 clip 0 1;
#X obj 251 184 * -0.15;
#X obj 251 206 + 0.5;
#X obj 112 291 *~;
#X obj 72 374 *~ 0.3;
#X obj 107 345 lop~ 100;
#X obj 112 313 *~ 20;
#X obj 170 206 * 0.9;
#X floatatom 386 456 5 0 0 0 - - -, f 5;
#X obj 480 318 env~ 512;
#X obj 481 296 osc~ 0.2;
#X obj 480 340 - 60;
#X obj 480 384 clip 0 1;
#X obj 480 362 / 40;
#X obj 480 423 send feedback;
#X obj 387 404 r feedback;
#X connect 0 0 16 0;
#X connect 1 0 4 0;
#X connect 3 0 1 1;
#X connect 4 0 19 0;
#X connect 5 0 2 0;
#X connect 5 0 2 1;
#X connect 6 0 9 0;
#X connect 7 0 8 0;
#X connect 8 0 18 0;
#X connect 9 0 7 0;
#X connect 10 0 11 0;
#X connect 10 0 13 0;
#X connect 11 0 9 1;
#X connect 11 0 12 0;
#X connect 12 0 9 2;
#X connect 14 0 17 0;
#X connect 15 0 3 0;
#X connect 16 0 14 0;
#X connect 17 2 18 0;
#X connect 18 0 3 0;
#X connect 19 0 5 0;
#X connect 20 0 1 0;
#X connect 21 0 37 0;
#X connect 21 0 37 1;
#X connect 22 0 24 0;
#X connect 23 0 22 0;
#X connect 24 0 25 0;
#X connect 25 0 41 0;
#X connect 25 2 35 0;
#X connect 26 0 27 0;
#X connect 27 0 28 1;
#X connect 28 0 29 0;
#X connect 28 0 29 1;
#X connect 32 0 33 0;
#X connect 34 0 32 0;
#X connect 34 0 30 0;
#X connect 35 0 36 0;
#X connect 36 0 31 0;
#X connect 36 0 34 0;
#X connect 37 0 40 0;
#X connect 38 0 28 0;
#X connect 39 0 38 0;
#X connect 40 0 39 0;
#X connect 41 0 26 0;
#X connect 43 0 45 0;
#X connect 44 0 43 0;
#X connect 45 0 47 0;
#X connect 46 0 48 0;
#X connect 47 0 46 0;
#X connect 49 0 42 0;
