#N canvas 65 81 758 300 10;
#X obj 493 199 s feedback;
#X obj 493 177 clip 0 1;
#X obj 499 127 dbtorms;
#X obj 499 149 * 10;
#X obj 411 117 -50;
#X obj 417 168 / 100;
#X obj 493 102 env~ 1024 512;
#X text 58 92 should be >60 Hz to sync display 48000 / 512 = 93 \,
75 Hz ->;
#X obj 494 28 inlet~;
#X connect 1 0 0 0;
#X connect 2 0 3 0;
#X connect 3 0 1 0;
#X connect 4 0 5 0;
#X connect 6 0 2 0;
#X connect 6 0 4 0;
#X connect 8 0 6 0;
