#N canvas 48 81 734 646 10;
#X obj 81 37 hsl 128 15 0 1 0 0 empty empty empty -2 -8 0 10 -262144
-1 -1 0 1;
#X obj 118 180 nbx 5 14 -1e+37 1e+37 0 0 empty empty empty 0 -8 0 10
-262144 -1 -1 72 256;
#X obj 78 106 interpolation-5p 14 66 35 100 54;
#X msg 301 60 72 3000 452 100 105;
#X connect 0 0 2 0;
#X connect 2 0 1 0;
#X connect 3 0 2 1;
