#N canvas 583 170 985 847 10;
#X obj 195 36 hsl 128 15 0 1 0 0 empty empty empty -2 -8 0 10 -262144
-1 -1 0 1;
#X obj 80 86 moses 1;
#X obj 179 333 - 1;
#X obj 80 636 unpack f f f;
#X obj 143 717 *;
#X obj 80 673 swap 1;
#X obj 80 695 -;
#X obj 80 717 *;
#X obj 80 741 +;
#X floatatom 102 773 5 0 0 0 - - -, f 5;
#X obj 80 64 * 4;
#X obj 271 386 - 2;
#X obj 384 431 - 3;
#X obj 179 115 moses 2;
#X obj 271 146 moses 3;
#X obj 80 793 outlet;
#X obj 80 37 inlet;
#X obj 80 316 pack f f f;
#X obj 179 356 pack f f f;
#X obj 271 409 pack f f f;
#X obj 384 454 pack f f f;
#X obj 113 253 f \$1;
#X obj 675 30 inlet;
#X obj 675 51 unpack f f f f f;
#X obj 377 28 inlet;
#X obj 437 29 inlet;
#X obj 499 30 inlet;
#X obj 558 30 inlet;
#X obj 615 30 inlet;
#X obj 212 252 f \$2;
#X obj 304 252 f \$3;
#X obj 417 243 f \$4;
#X obj 463 243 f \$5;
#X obj 80 133 t f b b;
#X obj 179 157 t f b b;
#X obj 271 178 t f b b;
#X obj 384 186 t f b b;
#X connect 0 0 10 0;
#X connect 1 0 33 0;
#X connect 1 1 13 0;
#X connect 2 0 18 0;
#X connect 3 0 4 0;
#X connect 3 0 5 0;
#X connect 3 1 7 1;
#X connect 3 2 4 1;
#X connect 4 0 8 1;
#X connect 5 0 6 0;
#X connect 5 1 6 1;
#X connect 6 0 7 0;
#X connect 7 0 8 0;
#X connect 8 0 9 0;
#X connect 8 0 15 0;
#X connect 10 0 1 0;
#X connect 11 0 19 0;
#X connect 12 0 20 0;
#X connect 13 0 34 0;
#X connect 13 1 14 0;
#X connect 14 0 35 0;
#X connect 14 1 36 0;
#X connect 16 0 10 0;
#X connect 17 0 3 0;
#X connect 18 0 3 0;
#X connect 19 0 3 0;
#X connect 20 0 3 0;
#X connect 21 0 17 1;
#X connect 22 0 23 0;
#X connect 23 0 21 1;
#X connect 23 1 29 1;
#X connect 23 2 30 1;
#X connect 23 3 31 0;
#X connect 23 4 32 0;
#X connect 24 0 21 1;
#X connect 25 0 29 1;
#X connect 26 0 30 1;
#X connect 27 0 31 1;
#X connect 28 0 32 1;
#X connect 29 0 17 2;
#X connect 29 0 18 1;
#X connect 30 0 18 2;
#X connect 30 0 19 1;
#X connect 31 0 19 2;
#X connect 31 0 20 1;
#X connect 32 0 20 2;
#X connect 33 0 17 0;
#X connect 33 1 21 0;
#X connect 33 2 29 0;
#X connect 34 0 2 0;
#X connect 34 1 29 0;
#X connect 34 2 30 0;
#X connect 35 0 11 0;
#X connect 35 1 30 0;
#X connect 35 2 31 0;
#X connect 36 0 12 0;
#X connect 36 1 31 0;
#X connect 36 2 32 0;
