#N canvas 783 93 958 998 10;
#X obj 45 81 t a a;
#X obj 110 146 * 12;
#X obj 45 237 +;
#X obj 45 304 outlet;
#X obj 45 41 inlet;
#X obj 289 191 loadbang;
#X obj 293 45 inlet;
#X obj 45 260 + \$1;
#X text 293 24 base note;
#X text 41 18 major step;
#X floatatom 57 146 5 0 0 0 - - -, f 5;
#X obj 45 120 mod 7;
#X obj 110 120 div 7;
#N canvas 172 83 586 377 LICENSE-GPL 0;
#X text 57 88 This program is free software: you can redistribute it
and/or modify it under the terms of the GNU General Public License
as published by the Free Software Foundation \, either version 3 of
the License \, or (at your option) any later version.;
#X text 58 168 This program is distributed in the hope that it will
be useful \, but WITHOUT ANY WARRANTY \; without even the implied warranty
of MERCHANTABILITY or FITNESS FOR A PARTICULAR PURPOSE. See the GNU
General Public License for more details.;
#X text 57 261 You should have received a copy of the GNU General Public
License along with this program. If not \, see <http://www.gnu.org/licenses/>.
;
#X text 61 54 Copyright (C) 2009 \, Reality Jockey Ltd.;
#X text 60 325 See the file LICENSE.txt for the full license text.
;
#X restore 442 19 pd LICENSE-GPL;
#X obj 45 175 tabread \$0-scale;
#X obj 327 963 s \$0-scale;
#X obj 254 964 outlet;
#X obj 292 85 table \$0-scale 7;
#X obj 287 916 list split 1;
#X msg 289 214 major 0 0 2 4 5 7 9 11;
#X obj 484 91 inlet;
#X text 481 67 scale selector;
#X msg 307 240 lydian 0 0 2 4 6 7 9 11;
#X msg 325 265 mixolydian 0 0 2 4 5 7 9 10;
#X msg 342 290 dorian 0 0 2 3 5 7 9 10;
#X msg 357 314 aeolian 0 0 2 3 5 7 8 10;
#X msg 374 340 phrygian 0 0 1 3 5 7 8 10;
#X symbolatom 163 905 10 0 0 0 - - -, f 10;
#X msg 393 368 locrian 0 0 1 3 5 6 8 10;
#X obj 483 134 select 0 1 2 3 4 5 6 7;
#X msg 411 404 diabulus 0 0 3 15 6 18 9 21;
#X connect 0 0 11 0;
#X connect 0 1 12 0;
#X connect 1 0 2 1;
#X connect 2 0 7 0;
#X connect 4 0 0 0;
#X connect 5 0 19 0;
#X connect 6 0 7 1;
#X connect 7 0 3 0;
#X connect 11 0 10 0;
#X connect 11 0 14 0;
#X connect 12 0 1 0;
#X connect 14 0 2 0;
#X connect 18 0 16 0;
#X connect 18 0 27 0;
#X connect 18 1 15 0;
#X connect 19 0 18 0;
#X connect 20 0 29 0;
#X connect 22 0 18 0;
#X connect 23 0 18 0;
#X connect 24 0 18 0;
#X connect 25 0 18 0;
#X connect 26 0 18 0;
#X connect 28 0 18 0;
#X connect 29 0 19 0;
#X connect 29 1 22 0;
#X connect 29 2 23 0;
#X connect 29 3 24 0;
#X connect 29 4 25 0;
#X connect 29 5 26 0;
#X connect 29 6 28 0;
#X connect 29 7 30 0;
#X connect 30 0 18 0;
