#N canvas 1 110 1905 998 10;
#X obj 1122 288 -~ 0.25;
#X obj 1122 261 *~ 0.25;
#X obj 1081 311 cos~;
#X obj 1121 310 cos~;
#X obj 163 -121 inlet;
#X obj 581 556 *~;
#X obj 384 837 *~;
#X obj 787 817 *~;
#X text 759 332 velocité;
#X text 1209 215 droite/gauche;
#X obj 588 184 t b f;
#X obj 357 127 mtof;
#X obj 164 -79 unpack f f f f;
#X text 429 -109 material / masse / velocité / stéréo : infor sur
une bille;
#X text 535 141 energy = mass * vel^2;
#X obj 518 117 *;
#X obj 501 140 *;
#X obj 381 875 throw~ impact-left-wall;
#X obj 787 855 throw~ impact-right-wall;
#X floatatom 41 -42 5 0 0 0 - - -, f 5;
#X floatatom 337 -39 5 0 0 0 - - -, f 5;
#X floatatom 326 -88 5 0 0 0 - - -, f 5;
#X floatatom 484 -54 5 0 0 0 - - -, f 5;
#X obj 1122 211 lop~ 20;
#X obj 686 335 lop~ 10;
#X obj 407 422 tanh~;
#X obj 283 157 osc~ 90;
#X obj 314 197 osc~ 90;
#X obj 282 248 +~;
#X obj 282 270 *~;
#X obj 323 332 *~;
#X obj 510 336 vline~;
#X obj 400 208 phasor~;
#X obj 365 170 *~ 2;
#X obj 400 177 *~ 4;
#X msg 511 309 0 \, 1 1 0 \, 0 25 1;
#X connect 0 0 3 0;
#X connect 1 0 0 0;
#X connect 1 0 2 0;
#X connect 2 0 6 1;
#X connect 3 0 7 1;
#X connect 4 0 12 0;
#X connect 5 0 6 0;
#X connect 5 0 7 0;
#X connect 6 0 17 0;
#X connect 7 0 18 0;
#X connect 10 0 35 0;
#X connect 10 1 24 0;
#X connect 11 0 26 0;
#X connect 11 0 33 0;
#X connect 11 0 34 0;
#X connect 12 0 19 0;
#X connect 12 0 11 0;
#X connect 12 1 16 0;
#X connect 12 1 20 0;
#X connect 12 2 15 0;
#X connect 12 2 15 1;
#X connect 12 2 21 0;
#X connect 12 3 22 0;
#X connect 12 3 23 0;
#X connect 15 0 16 1;
#X connect 16 0 10 0;
#X connect 23 0 1 0;
#X connect 24 0 5 1;
#X connect 25 0 5 0;
#X connect 26 0 28 0;
#X connect 27 0 29 1;
#X connect 28 0 29 0;
#X connect 29 0 30 0;
#X connect 30 0 25 0;
#X connect 31 0 30 1;
#X connect 32 0 28 1;
#X connect 33 0 27 0;
#X connect 34 0 32 0;
#X connect 35 0 31 0;
