#N canvas 486 110 958 998 10;
#X obj 1670 183 -~ 0.25;
#X obj 1670 156 *~ 0.25;
#X obj 1629 206 cos~;
#X obj 1669 205 cos~;
#X obj 163 -121 inlet;
#X obj 1670 106 lop~ 10;
#X obj 581 556 *~;
#X obj 384 837 *~;
#X obj 787 817 *~;
#X obj 1234 230 lop~ 10;
#X obj 452 362 *~;
#X obj 469 336 vline~;
#X obj 452 384 +~ 0.25;
#X obj 453 426 cos~;
#X obj 453 407 *~ 3;
#X obj 451 292 osc~ 90;
#X obj 565 405 *~;
#X obj 582 379 vline~;
#X obj 565 279 phasor~ 90;
#X obj 564 303 *~ 2;
#X obj 564 331 -~ 1;
#X obj 677 406 *~;
#X obj 694 380 vline~;
#X obj 677 274 osc~ 90;
#X obj 677 333 clip~ -1 1;
#X obj 546 18 r synth;
#X obj 465 90 list prepend;
#X text 1307 227 velocité;
#X text 1757 110 droite/gauche;
#X obj 465 39 t b f;
#X msg 469 314 1 4 \, 0 8 4;
#X obj 676 298 *~ 100000;
#X msg 582 357 1 1 \, 0 5 1;
#X obj 226 79 r scale;
#X obj 117 138 mtof;
#X obj 116 54 * 6;
#X obj 117 76 int;
#X obj 164 -79 unpack f f f f;
#X text 429 -109 material / masse / velocité / stéréo : infor sur
une bille;
#X obj 117 109 m_musicscales 35;
#X obj 167 52 r note;
#X floatatom 58 136 5 0 0 0 - - -, f 5;
#X obj 827 268 osc~ 90;
#X obj 826 343 *~;
#X obj 843 317 vline~;
#X obj 465 115 route 0 1 2 3 4;
#X msg 843 295 1 5 \, 0 150 5;
#X msg 694 358 1 50 \, 0 100 50;
#X text 263 4 energy = mass * vel^2;
#X obj 246 -20 *;
#X obj 229 3 *;
#X obj 381 875 throw~ impact-left-wall;
#X obj 787 855 throw~ impact-right-wall;
#X obj 33 243 t f b;
#N canvas 1 129 528 439 blip 1;
#X obj 190 236 vline~;
#X obj 189 262 *~;
#X obj 172 285 *~;
#X obj 153 26 inlet;
#X obj 172 391 outlet~;
#X obj 190 108 log;
#X obj 190 85 pow 4;
#X obj 190 151 * 1e+06;
#X obj 190 130 pow -3;
#X obj 190 174 * 2;
#X obj 259 25 inlet;
#X obj 265 87 pow -1;
#X obj 265 112 * 1000;
#X obj 153 56 t f f f;
#X obj 265 136 log;
#X obj 265 159 min 3;
#X obj 173 307 *~;
#X obj 44 25 noise~;
#X obj 124 161 sig~;
#X obj 93 212 vcf~ 220 2;
#X obj 57 137 *~ 100;
#X obj 361 35 inlet;
#X obj 432 68 inlet;
#X obj 47 70 *~;
#X obj 302 244 lop~ 20;
#X msg 190 202 0 1 \, 1 1 1 \, 0 \$1 2;
#X obj 173 329 tanh~;
#X connect 0 0 1 0;
#X connect 0 0 1 1;
#X connect 1 0 2 1;
#X connect 2 0 16 0;
#X connect 3 0 13 0;
#X connect 5 0 8 0;
#X connect 6 0 5 0;
#X connect 7 0 9 0;
#X connect 8 0 7 0;
#X connect 9 0 25 0;
#X connect 10 0 9 1;
#X connect 11 0 12 0;
#X connect 12 0 14 0;
#X connect 13 0 18 0;
#X connect 13 1 6 0;
#X connect 13 2 11 0;
#X connect 14 0 15 0;
#X connect 15 0 24 0;
#X connect 16 0 26 0;
#X connect 17 0 23 0;
#X connect 17 0 23 1;
#X connect 18 0 19 1;
#X connect 19 1 2 0;
#X connect 20 0 19 0;
#X connect 21 0 20 1;
#X connect 22 0 19 2;
#X connect 23 0 20 0;
#X connect 24 0 16 1;
#X connect 25 0 0 0;
#X connect 26 0 4 0;
#X restore 33 341 pd blip;
#X obj 49 265 r synth-decay;
#X obj 65 288 r synth-gain;
#X obj 80 309 r synth-q;
#X connect 0 0 3 0;
#X connect 1 0 0 0;
#X connect 1 0 2 0;
#X connect 2 0 7 1;
#X connect 3 0 8 1;
#X connect 4 0 37 0;
#X connect 5 0 1 0;
#X connect 6 0 7 0;
#X connect 6 0 8 0;
#X connect 7 0 51 0;
#X connect 8 0 52 0;
#X connect 9 0 6 1;
#X connect 10 0 12 0;
#X connect 11 0 10 1;
#X connect 12 0 14 0;
#X connect 13 0 6 0;
#X connect 14 0 13 0;
#X connect 15 0 10 0;
#X connect 16 0 6 0;
#X connect 17 0 16 1;
#X connect 18 0 19 0;
#X connect 19 0 20 0;
#X connect 20 0 16 0;
#X connect 21 0 6 0;
#X connect 22 0 21 1;
#X connect 23 0 31 0;
#X connect 24 0 21 0;
#X connect 25 0 26 1;
#X connect 26 0 45 0;
#X connect 29 0 26 0;
#X connect 29 1 9 0;
#X connect 30 0 11 0;
#X connect 31 0 24 0;
#X connect 32 0 17 0;
#X connect 33 0 39 2;
#X connect 34 0 23 0;
#X connect 34 0 18 0;
#X connect 34 0 15 0;
#X connect 34 0 42 0;
#X connect 34 0 53 0;
#X connect 35 0 36 0;
#X connect 36 0 39 0;
#X connect 37 1 35 0;
#X connect 37 1 50 0;
#X connect 37 2 49 0;
#X connect 37 2 49 1;
#X connect 37 3 5 0;
#X connect 39 0 34 0;
#X connect 39 0 41 0;
#X connect 40 0 39 1;
#X connect 42 0 43 0;
#X connect 43 0 6 0;
#X connect 44 0 43 1;
#X connect 45 1 30 0;
#X connect 45 2 32 0;
#X connect 45 3 47 0;
#X connect 45 4 46 0;
#X connect 46 0 44 0;
#X connect 47 0 22 0;
#X connect 49 0 50 1;
#X connect 50 0 29 0;
#X connect 53 0 54 0;
#X connect 54 0 6 0;
#X connect 55 0 54 1;
#X connect 56 0 54 2;
#X connect 57 0 54 3;
