#N canvas 1 110 1747 998 10;
#X obj 1047 434 -~ 0.25;
#X obj 1047 407 *~ 0.25;
#X obj 1006 457 cos~;
#X obj 1046 456 cos~;
#X obj 163 -121 inlet;
#X obj 581 556 *~;
#X obj 384 837 *~;
#X obj 787 817 *~;
#X obj 452 362 *~;
#X obj 469 336 vline~;
#X obj 452 384 +~ 0.25;
#X obj 453 426 cos~;
#X text 817 353 velocité;
#X text 1757 110 droite/gauche;
#X obj 399 156 t b f;
#X text 429 -109 material / masse / velocité / stéréo : infor sur
une bille;
#X text 263 4 energy = mass * vel^2;
#X obj 246 -20 *;
#X obj 229 3 *;
#X obj 381 875 throw~ impact-left-ball;
#X obj 787 855 throw~ impact-right-ball;
#X obj 454 465 tanh~;
#X floatatom 593 -25 5 0 0 0 - - -, f 5;
#X floatatom 462 -16 5 0 0 0 - - -, f 5;
#X floatatom 199 82 5 0 0 0 - - -, f 5;
#X floatatom 121 98 5 0 0 0 - - -, f 5;
#X obj 164 -79 unpack f f f;
#X floatatom 266 114 5 0 0 0 - - -, f 5;
#X obj 453 407 *~ 5;
#X floatatom 578 414 5 0 0 0 - - -, f 5;
#X obj 554 361 + 1.618;
#X obj 1047 357 lop~ 25;
#X obj 291 239 noise~;
#X msg 469 314 1 1 \, 0 4 2;
#X obj 297 292 lop~ 50;
#X obj 744 356 lop~ 25;
#X obj 556 385 * 3;
#X connect 0 0 3 0;
#X connect 1 0 0 0;
#X connect 1 0 2 0;
#X connect 2 0 6 1;
#X connect 3 0 7 1;
#X connect 4 0 26 0;
#X connect 5 0 6 0;
#X connect 5 0 7 0;
#X connect 6 0 19 0;
#X connect 7 0 20 0;
#X connect 8 0 10 0;
#X connect 9 0 8 1;
#X connect 10 0 28 0;
#X connect 11 0 21 0;
#X connect 14 0 33 0;
#X connect 14 1 30 0;
#X connect 14 1 35 0;
#X connect 17 0 18 1;
#X connect 18 0 14 0;
#X connect 18 0 27 0;
#X connect 21 0 5 0;
#X connect 26 0 25 0;
#X connect 26 0 18 0;
#X connect 26 1 24 0;
#X connect 26 1 17 1;
#X connect 26 1 17 0;
#X connect 26 2 23 0;
#X connect 26 2 31 0;
#X connect 28 0 11 0;
#X connect 30 0 36 0;
#X connect 31 0 1 0;
#X connect 32 0 34 0;
#X connect 33 0 9 0;
#X connect 34 0 8 0;
#X connect 35 0 5 1;
#X connect 36 0 28 1;
#X connect 36 0 29 0;
