#N canvas 1 110 1905 998 10;
#X obj 1679 273 -~ 0.25;
#X obj 1679 246 *~ 0.25;
#X obj 1638 296 cos~;
#X obj 1678 295 cos~;
#X obj 163 -121 inlet;
#X obj 339 1011 throw~ left;
#X obj 830 1021 throw~ right;
#N canvas 703 278 709 388 tincan 0;
#X obj -2 0 inlet~;
#X obj 76 288 outlet~;
#X obj -2 135 bp~ 1 1;
#X obj 76 135 bp~ 1 1;
#X obj 143 136 bp~ 1 1;
#X obj 213 136 bp~ 1 1;
#X obj 76 157 *~ 0.3;
#X obj 143 157 *~ 0.2;
#X obj 213 157 *~ 0.2;
#X obj -2 158 *~ 0.4;
#X obj 76 246 clip~ -0.5 0.5;
#X obj 95 -44 loadbang;
#X obj 94 63 unpack f f f f f f;
#X floatatom 278 119 5 0 0 0 - - -, f 5;
#X msg 94 -4 1 359 426 1748 3000 500;
#X obj 436 -19 inlet;
#X obj 77 214 *~ 10;
#X connect 0 0 2 0;
#X connect 0 0 3 0;
#X connect 0 0 4 0;
#X connect 0 0 5 0;
#X connect 2 0 9 0;
#X connect 3 0 6 0;
#X connect 4 0 7 0;
#X connect 5 0 8 0;
#X connect 6 0 16 0;
#X connect 7 0 16 0;
#X connect 8 0 16 0;
#X connect 9 0 16 0;
#X connect 10 0 1 0;
#X connect 11 0 14 0;
#X connect 12 1 2 1;
#X connect 12 2 3 1;
#X connect 12 3 4 1;
#X connect 12 4 5 1;
#X connect 12 5 5 2;
#X connect 12 5 4 2;
#X connect 12 5 3 2;
#X connect 12 5 2 2;
#X connect 12 5 13 0;
#X connect 14 0 12 0;
#X connect 15 0 12 0;
#X connect 16 0 10 0;
#X coords 0 0 1 1 240 160 0;
#X restore 386 943 pd tincan;
#X obj 354 368 vline~;
#X obj 354 391 *~;
#X obj 1679 196 lop~ 10;
#X msg 354 345 1 \, 0 2;
#X obj 354 319 delay 1;
#X obj 581 556 *~;
#X obj 548 615 *~;
#X obj 598 612 *~;
#X obj 915 478 lop~ 10;
#X obj 452 362 *~;
#X obj 469 336 vline~;
#X obj 452 384 +~ 0.25;
#X obj 453 426 cos~;
#X obj 453 407 *~ 3;
#X obj 451 292 osc~ 90;
#X obj 565 405 *~;
#X obj 582 379 vline~;
#X obj 565 279 phasor~ 90;
#X obj 564 303 *~ 2;
#X obj 564 331 -~ 1;
#X obj 677 406 *~;
#X obj 694 380 vline~;
#X obj 677 274 osc~ 90;
#X obj 677 333 clip~ -1 1;
#X obj 546 18 r synth;
#X obj 465 90 list prepend;
#X text 988 475 velocité;
#X text 1766 200 droite/gauche;
#X obj 265 907 *~;
#X obj 404 843 swap 1;
#X obj 385 918 *~;
#X obj 333 796 t f f;
#X obj 404 889 lop~ 10;
#X obj 282 877 lop~ 10;
#X text 487 872 wall / grain <=> wet /dry;
#N canvas 935 375 931 679 tincan 0;
#X obj -2 0 inlet~;
#X obj 76 253 outlet~;
#X obj -2 135 bp~ 1 1;
#X obj 76 135 bp~ 1 1;
#X obj 143 136 bp~ 1 1;
#X obj 213 136 bp~ 1 1;
#X obj 76 157 *~ 0.3;
#X obj 143 157 *~ 0.2;
#X obj 213 157 *~ 0.2;
#X obj -2 158 *~ 0.4;
#X obj 76 211 clip~ -0.5 0.5;
#X obj 95 -44 loadbang;
#X obj 94 63 unpack f f f f f f;
#X floatatom 278 119 5 0 0 0 - - -, f 5;
#X msg 94 -4 1 359 426 1748 3000 500;
#X obj 436 -19 inlet;
#X obj 76 190 *~ 10;
#X connect 0 0 2 0;
#X connect 0 0 3 0;
#X connect 0 0 4 0;
#X connect 0 0 5 0;
#X connect 2 0 9 0;
#X connect 3 0 6 0;
#X connect 4 0 7 0;
#X connect 5 0 8 0;
#X connect 6 0 16 0;
#X connect 7 0 16 0;
#X connect 8 0 16 0;
#X connect 9 0 16 0;
#X connect 10 0 1 0;
#X connect 11 0 14 0;
#X connect 12 1 2 1;
#X connect 12 2 3 1;
#X connect 12 3 4 1;
#X connect 12 4 5 1;
#X connect 12 5 5 2;
#X connect 12 5 4 2;
#X connect 12 5 3 2;
#X connect 12 5 2 2;
#X connect 12 5 13 0;
#X connect 14 0 12 0;
#X connect 15 0 12 0;
#X connect 16 0 10 0;
#X coords 0 0 1 1 240 160 0;
#X restore 879 963 pd tincan;
#X obj 813 939 *~;
#X obj 896 850 swap 1;
#X obj 878 938 *~;
#X obj 831 822 t f f;
#X obj 896 896 lop~ 10;
#X obj 831 896 lop~ 10;
#X text 67 552 wall / grain <=> wet /dry;
#X obj 5 548 t f f;
#X obj 616 903 r formants;
#X obj 465 39 t b f;
#X msg 469 314 1 4 \, 0 8 4;
#X obj 354 413 *~ 0.5;
#X obj 676 298 *~ 100000;
#X msg 582 357 1 1 \, 0 5 1;
#X obj 404 866 -;
#X obj 896 873 -;
#X obj 6 397 / 1;
#X obj 302 28 r scale;
#X obj 193 87 mtof;
#X obj 192 3 * 6;
#X obj 193 25 int;
#X obj 164 -79 unpack f f f f;
#X text 429 -109 material / masse / velocité / stéréo : infor sur
une bille;
#X obj 193 58 m_musicscales 35;
#X obj 243 1 r note;
#X floatatom 134 85 5 0 0 0 - - -, f 5;
#X obj 827 268 osc~ 90;
#X obj 826 343 *~;
#X obj 843 317 vline~;
#X obj 465 115 route 0 1 2 3 4;
#X msg 843 295 1 5 \, 0 150 5;
#X obj 267 940 *~ 0.1;
#X obj 809 974 *~ 0.1;
#X msg 694 358 1 50 \, 0 100 50;
#X text 519 -75 energy = mass * vel^2;
#X obj 9 454 sel 1 0;
#X msg 6 500 0.1;
#X msg 57 499 0.9;
#X connect 0 0 3 0;
#X connect 1 0 0 0;
#X connect 1 0 2 0;
#X connect 2 0 14 1;
#X connect 3 0 15 1;
#X connect 4 0 65 0;
#X connect 7 0 5 0;
#X connect 8 0 9 0;
#X connect 8 0 9 1;
#X connect 9 0 55 0;
#X connect 10 0 1 0;
#X connect 11 0 8 0;
#X connect 12 0 11 0;
#X connect 13 0 14 0;
#X connect 13 0 15 0;
#X connect 14 0 36 0;
#X connect 14 0 38 0;
#X connect 15 0 44 0;
#X connect 15 0 46 0;
#X connect 16 0 13 1;
#X connect 17 0 19 0;
#X connect 18 0 17 1;
#X connect 19 0 21 0;
#X connect 20 0 13 0;
#X connect 21 0 20 0;
#X connect 22 0 17 0;
#X connect 23 0 13 0;
#X connect 24 0 23 1;
#X connect 25 0 26 0;
#X connect 26 0 27 0;
#X connect 27 0 23 0;
#X connect 28 0 13 0;
#X connect 29 0 28 1;
#X connect 30 0 56 0;
#X connect 31 0 28 0;
#X connect 32 0 33 1;
#X connect 33 0 73 0;
#X connect 36 0 75 0;
#X connect 37 0 58 0;
#X connect 37 1 58 1;
#X connect 38 0 7 0;
#X connect 39 0 41 0;
#X connect 39 1 37 0;
#X connect 40 0 38 1;
#X connect 41 0 36 1;
#X connect 43 0 6 0;
#X connect 44 0 76 0;
#X connect 45 0 59 0;
#X connect 45 1 59 1;
#X connect 46 0 43 0;
#X connect 47 0 49 0;
#X connect 47 1 45 0;
#X connect 48 0 46 1;
#X connect 49 0 44 1;
#X connect 51 0 39 0;
#X connect 51 1 47 0;
#X connect 52 0 43 1;
#X connect 52 0 7 1;
#X connect 53 0 33 0;
#X connect 53 1 16 0;
#X connect 54 0 18 0;
#X connect 55 0 13 0;
#X connect 56 0 31 0;
#X connect 57 0 24 0;
#X connect 58 0 40 0;
#X connect 59 0 48 0;
#X connect 60 0 79 0;
#X connect 61 0 67 2;
#X connect 62 0 30 0;
#X connect 62 0 25 0;
#X connect 62 0 22 0;
#X connect 62 0 70 0;
#X connect 63 0 64 0;
#X connect 64 0 67 0;
#X connect 65 0 60 0;
#X connect 65 1 63 0;
#X connect 65 2 53 0;
#X connect 65 3 10 0;
#X connect 67 0 62 0;
#X connect 67 0 69 0;
#X connect 68 0 67 1;
#X connect 70 0 71 0;
#X connect 71 0 13 0;
#X connect 72 0 71 1;
#X connect 73 0 12 0;
#X connect 73 1 54 0;
#X connect 73 2 57 0;
#X connect 73 3 77 0;
#X connect 73 4 74 0;
#X connect 74 0 72 0;
#X connect 75 0 5 0;
#X connect 76 0 6 0;
#X connect 77 0 29 0;
#X connect 79 0 80 0;
#X connect 79 1 81 0;
#X connect 80 0 51 0;
#X connect 81 0 51 0;
