#N canvas 93 81 958 998 10;
#X obj 130 648 catch~ left;
#X obj 152 667 catch~ right;
#N canvas 957 89 958 998 doTheFiltering 1;
#X obj -367 -89 route list;
#X obj -366 -111 inlet;
#X obj -367 -62 route 1 2 3 4 5 6 7 8 9 10 11 12 13 14 15 16 17 18
19 20 21 22 23 24 25 26 27 28 29 30 31 32 33 34 35 36 37 38 39 40 41
42 43 44 45 46 47 48 49 50, f 101;
#X obj -301 50 particle voice-0;
#X obj -301 240 particle voice-9;
#X obj 74 370 particle voice-29;
#X obj 266 416 particle voice-39;
#X obj 74 186 particle voice-20;
#X obj -120 286 particle voice-19;
#X obj 476 418 particle voice-48;
#X obj -301 92 particle voice-2;
#X obj -301 114 particle voice-3;
#X obj -301 135 particle voice-4;
#X obj -301 71 particle voice-1;
#X obj -301 156 particle voice-5;
#X obj -301 177 particle voice-6;
#X obj -301 198 particle voice-7;
#X obj -301 219 particle voice-8;
#X obj -121 106 particle voice-10;
#X obj -121 126 particle voice-11;
#X obj -121 146 particle voice-12;
#X obj -121 166 particle voice-13;
#X obj -121 186 particle voice-14;
#X obj -121 206 particle voice-15;
#X obj -121 226 particle voice-16;
#X obj -121 246 particle voice-17;
#X obj -121 266 particle voice-18;
#X obj 74 207 particle voice-21;
#X obj 74 228 particle voice-22;
#X obj 74 249 particle voice-23;
#X obj 74 270 particle voice-24;
#X obj 74 290 particle voice-25;
#X obj 74 310 particle voice-26;
#X obj 74 330 particle voice-27;
#X obj 74 350 particle voice-28;
#X obj 266 232 particle voice-30;
#X obj 476 254 particle voice-40;
#X obj 266 253 particle voice-31;
#X obj 266 274 particle voice-32;
#X obj 266 295 particle voice-33;
#X obj 266 316 particle voice-34;
#X obj 266 336 particle voice-35;
#X obj 266 356 particle voice-36;
#X obj 266 376 particle voice-37;
#X obj 266 396 particle voice-38;
#X obj 476 275 particle voice-41;
#X obj 476 296 particle voice-42;
#X obj 476 317 particle voice-43;
#X obj 476 338 particle voice-44;
#X obj 476 358 particle voice-45;
#X obj 476 378 particle voice-46;
#X obj 476 398 particle voice-47;
#X obj 476 439 particle voice-49;
#X connect 0 0 2 0;
#X connect 1 0 0 0;
#X connect 2 0 3 0;
#X connect 2 1 13 0;
#X connect 2 2 10 0;
#X connect 2 3 11 0;
#X connect 2 4 12 0;
#X connect 2 5 14 0;
#X connect 2 6 15 0;
#X connect 2 7 16 0;
#X connect 2 8 17 0;
#X connect 2 9 4 0;
#X connect 2 10 18 0;
#X connect 2 11 19 0;
#X connect 2 12 20 0;
#X connect 2 13 21 0;
#X connect 2 14 22 0;
#X connect 2 15 23 0;
#X connect 2 16 24 0;
#X connect 2 17 25 0;
#X connect 2 18 26 0;
#X connect 2 19 8 0;
#X connect 2 20 7 0;
#X connect 2 21 27 0;
#X connect 2 22 28 0;
#X connect 2 23 29 0;
#X connect 2 24 30 0;
#X connect 2 25 31 0;
#X connect 2 26 32 0;
#X connect 2 27 33 0;
#X connect 2 28 34 0;
#X connect 2 29 5 0;
#X connect 2 30 35 0;
#X connect 2 31 37 0;
#X connect 2 32 38 0;
#X connect 2 33 39 0;
#X connect 2 34 40 0;
#X connect 2 35 41 0;
#X connect 2 36 42 0;
#X connect 2 37 43 0;
#X connect 2 38 44 0;
#X connect 2 39 6 0;
#X connect 2 40 36 0;
#X connect 2 41 45 0;
#X connect 2 42 46 0;
#X connect 2 43 47 0;
#X connect 2 44 48 0;
#X connect 2 45 49 0;
#X connect 2 46 50 0;
#X connect 2 47 51 0;
#X connect 2 48 9 0;
#X connect 2 49 52 0;
#X restore 672 973 pd doTheFiltering;
#X obj 131 885 dac~;
#X obj 628 427 oscparse;
#X obj 628 398 netreceive -u -b;
#X msg 640 371 listen 0;
#X obj 45 443 s formants;
#X msg 73 92 1 270 540 2300 3000 850;
#X obj 118 173 bng 25 250 50 0 empty empty empty 17 7 0 10 -262144
-1 -1;
#X obj 128 619 tanhtable~;
#X obj 153 838 tanh~;
#X obj 130 819 tanh~;
#X obj 140 232 vsl 15 128 0 10000 0 0 empty empty empty 0 -9 0 10 -262144
-1 -1 2400 1;
#X obj 145 369 nbx 5 14 -1e+37 1e+37 0 0 empty empty empty 0 -8 0 10
-262144 -1 -1 1889.76 256;
#X obj 205 231 vsl 15 128 0 10000 0 0 empty empty empty 0 -9 0 10 -262144
-1 -1 4500 1;
#X obj 210 368 nbx 5 14 -1e+37 1e+37 0 0 empty empty empty 0 -8 0 10
-262144 -1 -1 3543.31 256;
#X obj 266 230 vsl 15 128 0 10000 0 0 empty empty empty 0 -9 0 10 -262144
-1 -1 6800 1;
#X obj 271 367 nbx 5 14 -1e+37 1e+37 0 0 empty empty empty 0 -8 0 10
-262144 -1 -1 5354.33 256;
#X obj 329 230 vsl 15 128 0 10000 0 0 empty empty empty 0 -9 0 10 -262144
-1 -1 6900 1;
#X obj 334 367 nbx 5 14 -1e+37 1e+37 0 0 empty empty empty 0 -8 0 10
-262144 -1 -1 5433.07 256;
#X obj 392 230 vsl 15 128 0 1000 0 0 empty empty empty 0 -9 0 10 -262144
-1 -1 9800 1;
#X obj 397 367 nbx 5 14 -1e+37 1e+37 0 0 empty empty empty 0 -8 0 10
-262144 -1 -1 771.654 256;
#X obj 119 397 pack a f f f f f;
#X msg 628 352 listen 1200;
#X obj 628 493 route impact;
#X obj 628 472 route send;
#X obj 628 449 list trim;
#X obj 497 104 hradio 25 1 0 5 empty empty empty 0 -8 0 10 -262144
-1 -1 3;
#X obj 497 142 s synth;
#X obj 628 536 route impact;
#X obj 628 514 list trim;
#X floatatom 561 144 5 0 0 0 - - -, f 5;
#X obj 840 690 print;
#X msg 45 33 1 359 426 1748 3000 250;
#X msg 60 63 1 554 752 1852 5211 500;
#X msg 91 121 1 150 300 870 2250 1500;
#X obj 499 10 hradio 25 1 0 7 empty empty empty 0 -8 0 10 -262144 -1
-1 2;
#X obj 499 65 s scale;
#X symbolatom 565 66 15 0 0 0 - - -, f 15;
#X text 77 568 material = 0 si collision bille bille;
#X text 79 588 material != 0 si collision bille / paroi;
#X text 80 521 material / masse / velocité / stéréo : infor sur
une bille;
#X obj 628 573 unpack f f f f;
#X obj 672 891 pack f f f f f;
#X msg 538 793 \$1 127;
#X obj 561 677 t f f;
#X obj 541 725 + 1;
#X obj 511 42 m_musicscales 60;
#X obj 720 65 s note;
#X floatatom 727 31 5 0 0 0 - - -, f 5;
#X obj 177 747 clip~ -1 1;
#X obj 81 736 clip~ -1 1;
#X obj 527 851 poly 25 1;
#X obj 36 -9 loadbang;
#X obj 374 5 loadbang;
#X msg 374 27 3;
#X obj 828 15 loadbang;
#X msg 827 36 60;
#X connect 0 0 52 0;
#X connect 1 0 51 0;
#X connect 4 0 27 0;
#X connect 5 0 4 0;
#X connect 6 0 5 0;
#X connect 8 0 7 0;
#X connect 9 0 23 0;
#X connect 11 0 3 1;
#X connect 12 0 3 0;
#X connect 13 0 14 0;
#X connect 13 0 23 1;
#X connect 15 0 16 0;
#X connect 15 0 23 2;
#X connect 17 0 18 0;
#X connect 17 0 23 3;
#X connect 19 0 20 0;
#X connect 19 0 23 4;
#X connect 21 0 22 0;
#X connect 21 0 23 5;
#X connect 23 0 7 0;
#X connect 24 0 5 0;
#X connect 25 0 31 0;
#X connect 26 0 25 0;
#X connect 27 0 26 0;
#X connect 28 0 29 0;
#X connect 28 0 32 0;
#X connect 30 0 43 0;
#X connect 30 0 33 0;
#X connect 31 0 30 0;
#X connect 34 0 7 0;
#X connect 35 0 7 0;
#X connect 36 0 7 0;
#X connect 37 0 38 0;
#X connect 37 0 48 2;
#X connect 43 0 46 0;
#X connect 43 1 44 2;
#X connect 43 2 44 3;
#X connect 43 3 44 4;
#X connect 44 0 2 0;
#X connect 45 0 53 0;
#X connect 46 0 47 0;
#X connect 46 1 44 1;
#X connect 47 0 45 0;
#X connect 48 1 39 0;
#X connect 50 0 49 0;
#X connect 51 0 11 0;
#X connect 52 0 12 0;
#X connect 53 0 44 0;
#X connect 54 0 34 0;
#X connect 55 0 56 0;
#X connect 56 0 37 0;
#X connect 56 0 28 0;
#X connect 57 0 58 0;
#X connect 58 0 50 0;
